<svg xmlns="http://www.w3.org/2000/svg" xmlns:xlink="http://www.w3.org/1999/xlink" width="500" zoomAndPan="magnify" viewBox="0 0 375 374.999991" height="500" preserveAspectRatio="xMidYMid meet" version="1.0"><defs><g/><clipPath id="id1"><path d="M 44 127 L 119 127 L 119 165 L 44 165 Z M 44 127 " clip-rule="nonzero"/></clipPath><clipPath id="id2"><path d="M 37.5 115.070312 L 143.289062 93.335938 L 158.835938 169.003906 L 53.046875 190.738281 Z M 37.5 115.070312 " clip-rule="nonzero"/></clipPath><clipPath id="id3"><path d="M 37.5 115.070312 L 143.289062 93.335938 L 158.835938 169.003906 L 53.046875 190.738281 Z M 37.5 115.070312 " clip-rule="nonzero"/></clipPath><clipPath id="id4"><path d="M 71 104 L 150 104 L 150 186 L 71 186 Z M 71 104 " clip-rule="nonzero"/></clipPath><clipPath id="id5"><path d="M 37.5 115.070312 L 143.289062 93.335938 L 158.835938 169.003906 L 53.046875 190.738281 Z M 37.5 115.070312 " clip-rule="nonzero"/></clipPath><clipPath id="id6"><path d="M 37.5 115.070312 L 143.289062 93.335938 L 158.835938 169.003906 L 53.046875 190.738281 Z M 37.5 115.070312 " clip-rule="nonzero"/></clipPath></defs><g clip-path="url(#id1)"><g clip-path="url(#id2)"><g clip-path="url(#id3)"><path fill="#000000" d="M 83.660156 157.015625 C 85.921875 155.859375 88.183594 154.65625 90.398438 153.453125 C 92.621094 152.238281 94.753906 151.101562 96.992188 150.128906 C 99.238281 149.160156 101.542969 148.230469 103.816406 147.464844 C 104.953125 147.085938 106.082031 146.757812 107.207031 146.550781 C 108.324219 146.347656 109.539062 146.261719 110.734375 146.238281 C 113.144531 146.199219 115.609375 146.515625 118.117188 147.082031 C 116.023438 145.59375 113.574219 144.539062 110.96875 143.996094 C 110.316406 143.859375 109.65625 143.757812 108.988281 143.6875 C 108.328125 143.605469 107.640625 143.582031 106.945312 143.585938 C 105.558594 143.609375 104.210938 143.800781 102.914062 144.070312 C 100.316406 144.621094 97.875 145.425781 95.441406 146.328125 C 93 147.226562 90.613281 148.34375 88.34375 149.421875 C 86.066406 150.503906 83.816406 151.546875 81.523438 152.558594 C 79.21875 153.570312 76.921875 154.617188 74.667969 155.550781 C 73.539062 156.015625 72.425781 156.441406 71.355469 156.769531 C 70.808594 156.933594 70.3125 157.066406 69.753906 157.191406 L 67.9375 157.589844 C 65.554688 158.097656 63.28125 158.4375 61.207031 158.339844 C 57.109375 158.1875 53.679688 155.753906 51.824219 151.988281 C 51.332031 151.066406 50.957031 150.054688 50.652344 149.015625 C 50.347656 147.984375 50.121094 146.878906 50.015625 145.855469 C 49.824219 143.707031 49.972656 141.582031 50.636719 139.652344 C 51.28125 137.722656 52.476562 136.023438 53.992188 134.644531 C 55.507812 133.265625 57.414062 132.246094 59.511719 131.597656 C 60.039062 131.441406 60.570312 131.304688 61.105469 131.195312 C 61.375 131.148438 61.648438 131.117188 61.921875 131.074219 C 62.195312 131.027344 62.46875 131 62.746094 130.980469 C 63.855469 130.890625 64.996094 130.898438 66.148438 131.0625 C 68.457031 131.367188 70.796875 132.164062 73.078125 133.375 C 71.628906 131.214844 69.464844 129.488281 66.945312 128.371094 C 65.683594 127.808594 64.3125 127.4375 62.902344 127.246094 C 61.5 127.050781 60.035156 127.03125 58.621094 127.238281 C 55.785156 127.601562 52.957031 128.714844 50.59375 130.558594 C 48.238281 132.402344 46.398438 134.933594 45.339844 137.738281 C 44.277344 140.542969 43.949219 143.53125 44.183594 146.382812 C 44.308594 147.863281 44.574219 149.230469 44.945312 150.617188 C 45.324219 151.992188 45.804688 153.351562 46.464844 154.664062 C 47.136719 155.964844 47.910156 157.246094 48.910156 158.394531 L 49.269531 158.832031 C 49.402344 158.972656 49.535156 159.105469 49.671875 159.242188 L 50.484375 160.046875 L 51.375 160.777344 L 51.824219 161.140625 L 52.304688 161.457031 C 54.824219 163.222656 58.003906 164.117188 60.964844 164.191406 C 63.945312 164.289062 66.679688 163.695312 69.199219 163.082031 L 71.0625 162.605469 C 71.726562 162.433594 72.441406 162.21875 73.09375 161.988281 C 74.410156 161.511719 75.632812 160.976562 76.8125 160.425781 C 79.171875 159.3125 81.414062 158.164062 83.660156 157.015625 Z M 83.660156 157.015625 " fill-opacity="1" fill-rule="nonzero"/></g></g></g><g clip-path="url(#id4)"><g clip-path="url(#id5)"><g clip-path="url(#id6)"><path fill="#000000" d="M 149.121094 122.167969 C 148.882812 121.183594 148.570312 120.214844 148.191406 119.28125 C 147.8125 118.34375 147.363281 117.4375 146.851562 116.566406 C 146.71875 116.347656 146.589844 116.128906 146.449219 115.917969 C 146.316406 115.707031 146.179688 115.511719 146.023438 115.300781 C 145.726562 114.886719 145.433594 114.472656 145.097656 114.085938 C 144.460938 113.289062 143.726562 112.570312 142.976562 111.878906 C 142.203125 111.210938 141.40625 110.578125 140.554688 110.035156 C 138.867188 108.929688 137.027344 108.082031 135.203125 107.464844 L 134.535156 107.246094 L 134.207031 107.144531 L 133.847656 107.046875 C 133.367188 106.910156 132.890625 106.78125 132.402344 106.683594 C 131.433594 106.457031 130.441406 106.332031 129.457031 106.238281 C 127.476562 106.085938 125.488281 106.1875 123.578125 106.519531 C 122.625 106.683594 121.691406 106.902344 120.792969 107.160156 C 120.34375 107.289062 119.910156 107.414062 119.492188 107.554688 C 119.042969 107.710938 118.585938 107.851562 118.144531 108.027344 C 116.367188 108.707031 114.664062 109.558594 113.101562 110.605469 C 112.21875 111.183594 111.382812 111.820312 110.589844 112.503906 C 110.238281 112.089844 109.878906 111.683594 109.5 111.292969 C 109.015625 110.785156 108.5 110.3125 107.964844 109.855469 C 107.6875 109.621094 107.445312 109.414062 107.179688 109.199219 C 106.914062 108.984375 106.640625 108.769531 106.359375 108.5625 C 104.109375 106.890625 101.480469 105.546875 98.632812 104.820312 C 95.789062 104.066406 92.753906 103.984375 89.847656 104.449219 C 86.9375 104.925781 84.175781 106.015625 81.695312 107.429688 C 80.558594 108.089844 79.324219 108.871094 78.203125 109.796875 C 77.074219 110.710938 76.035156 111.765625 75.132812 112.933594 C 74.234375 114.109375 73.472656 115.394531 72.890625 116.746094 C 72.308594 118.097656 71.863281 119.496094 71.640625 120.921875 C 71.121094 123.757812 71.34375 126.644531 72.140625 129.230469 C 72.523438 130.535156 73.074219 131.761719 73.710938 132.910156 C 74.359375 134.058594 75.113281 135.128906 75.996094 136.066406 C 75.246094 133.621094 74.871094 131.167969 74.917969 128.808594 C 74.96875 126.453125 75.421875 124.222656 76.324219 122.246094 C 76.53125 121.746094 76.796875 121.273438 77.042969 120.804688 C 77.324219 120.351562 77.589844 119.898438 77.914062 119.480469 C 78.542969 118.636719 79.226562 117.855469 79.980469 117.140625 C 80.726562 116.417969 81.53125 115.757812 82.386719 115.128906 C 83.238281 114.496094 84.132812 113.929688 85.160156 113.316406 C 87.011719 112.195312 88.996094 111.402344 91.039062 110.980469 C 93.074219 110.554688 95.164062 110.542969 97.222656 110.90625 C 99.273438 111.296875 101.292969 112.074219 103.195312 113.210938 C 103.4375 113.347656 103.675781 113.496094 103.917969 113.648438 C 104.160156 113.800781 104.417969 113.972656 104.640625 114.121094 C 105.097656 114.429688 105.546875 114.761719 105.988281 115.101562 C 106.863281 115.792969 107.699219 116.546875 108.480469 117.371094 L 109.898438 118.851562 L 111.773438 117.710938 C 113.113281 116.902344 114.46875 116.179688 115.859375 115.574219 C 117.257812 114.976562 118.671875 114.476562 120.113281 114.113281 C 120.472656 114.011719 120.835938 113.941406 121.195312 113.859375 C 121.59375 113.777344 121.976562 113.6875 122.351562 113.617188 C 123.097656 113.476562 123.824219 113.363281 124.546875 113.28125 C 125.269531 113.207031 125.980469 113.167969 126.691406 113.160156 C 127.398438 113.15625 128.101562 113.203125 128.796875 113.257812 C 129.488281 113.351562 130.179688 113.4375 130.859375 113.597656 C 131.203125 113.664062 131.535156 113.761719 131.875 113.855469 L 132.128906 113.921875 L 132.40625 114.003906 L 132.945312 114.171875 C 134.328125 114.609375 135.589844 115.179688 136.746094 115.902344 C 137.324219 116.257812 137.855469 116.667969 138.371094 117.09375 C 138.867188 117.542969 139.355469 117.992188 139.777344 118.507812 C 140.003906 118.753906 140.195312 119.027344 140.398438 119.292969 C 140.5 119.417969 140.605469 119.566406 140.699219 119.710938 L 140.980469 120.132812 C 141.34375 120.699219 141.667969 121.296875 141.945312 121.914062 C 142.222656 122.53125 142.453125 123.164062 142.632812 123.808594 C 142.808594 124.457031 142.933594 125.113281 143.011719 125.769531 C 143.140625 127.09375 143.082031 128.433594 142.800781 129.730469 C 142.667969 130.382812 142.453125 131.023438 142.210938 131.660156 C 141.957031 132.296875 141.648438 132.921875 141.296875 133.542969 C 140.945312 134.167969 140.53125 134.777344 140.085938 135.394531 C 139.863281 135.699219 139.636719 136.011719 139.386719 136.328125 C 139.148438 136.640625 138.875 136.988281 138.652344 137.261719 C 137.71875 138.417969 136.65625 139.46875 135.480469 140.414062 C 134.304688 141.367188 133.03125 142.226562 131.640625 143.011719 C 130.953125 143.40625 130.21875 143.785156 129.484375 144.179688 C 128.785156 144.554688 128.070312 144.90625 127.34375 145.234375 C 125.886719 145.882812 124.394531 146.476562 122.859375 146.949219 L 120.457031 147.511719 L 124.496094 165.128906 C 123.273438 164.976562 122.019531 164.878906 120.757812 164.882812 C 119.605469 164.882812 118.4375 164.984375 117.304688 165.164062 C 116.160156 165.34375 115.046875 165.621094 113.972656 165.941406 C 111.820312 166.59375 109.792969 167.429688 107.816406 168.328125 C 105.847656 169.238281 103.925781 170.195312 102.019531 171.261719 C 101.070312 171.792969 100.128906 172.359375 99.21875 172.933594 C 98.304688 173.511719 97.429688 174.085938 96.554688 174.613281 C 96.117188 174.878906 95.679688 175.136719 95.234375 175.386719 C 95.011719 175.511719 94.789062 175.632812 94.5625 175.753906 L 93.863281 176.128906 C 92.882812 176.660156 91.96875 177.203125 91.0625 177.722656 C 89.25 178.769531 87.453125 179.710938 85.574219 180.472656 C 84.078125 181.085938 82.542969 181.566406 80.972656 181.9375 C 78.710938 175.78125 76.324219 169.710938 74.1875 163.535156 C 75.527344 170.40625 77.179688 177.234375 78.617188 184.050781 L 78.890625 185.347656 L 80.300781 185.09375 C 82.476562 184.707031 84.632812 184.113281 86.699219 183.316406 C 88.761719 182.527344 90.746094 181.53125 92.621094 180.492188 C 93.558594 179.976562 94.476562 179.457031 95.371094 178.996094 L 96.078125 178.636719 C 96.324219 178.511719 96.566406 178.386719 96.804688 178.253906 C 97.289062 177.996094 97.769531 177.730469 98.242188 177.453125 C 99.191406 176.902344 100.101562 176.332031 100.988281 175.796875 C 101.878906 175.257812 102.761719 174.75 103.671875 174.265625 C 105.484375 173.296875 107.375 172.398438 109.269531 171.566406 C 111.164062 170.746094 113.078125 170 114.996094 169.460938 C 115.953125 169.195312 116.90625 168.976562 117.859375 168.847656 C 118.820312 168.714844 119.773438 168.648438 120.738281 168.667969 C 122.6875 168.691406 124.632812 169 126.675781 169.425781 L 129.628906 169.992188 L 128.957031 167.074219 L 125.136719 150.46875 C 126.429688 150.191406 127.714844 149.851562 128.976562 149.425781 C 129.828125 149.144531 130.671875 148.832031 131.507812 148.492188 C 132.304688 148.175781 133.105469 147.828125 133.921875 147.453125 C 135.550781 146.707031 137.191406 145.828125 138.734375 144.761719 C 140.273438 143.6875 141.722656 142.453125 143.015625 141.0625 C 143.355469 140.699219 143.625 140.402344 143.925781 140.066406 C 144.21875 139.734375 144.523438 139.390625 144.816406 139.027344 C 145.402344 138.304688 145.980469 137.542969 146.507812 136.722656 C 147.035156 135.902344 147.519531 135.039062 147.945312 134.128906 C 148.355469 133.210938 148.722656 132.261719 148.988281 131.277344 C 149.550781 129.304688 149.714844 127.234375 149.582031 125.199219 C 149.507812 124.167969 149.351562 123.160156 149.121094 122.167969 Z M 149.121094 122.167969 " fill-opacity="1" fill-rule="nonzero"/></g></g></g><g fill="#000000" fill-opacity="1"><g transform="translate(78.037714, 214.218015)"><g><path d="M 36.878906 -15.398438 C 31.246094 -9.6875 24.257812 -9.539062 17.5 -9.386719 C 16.523438 -9.386719 15.546875 -9.3125 14.570312 -9.3125 C 19.976562 -23.132812 24.859375 -46.191406 26.585938 -54.378906 C 26.664062 -54.753906 26.4375 -55.203125 25.910156 -55.652344 C 25.085938 -56.328125 22.90625 -57.53125 21.855469 -57.15625 C 21.554688 -57.082031 21.332031 -56.78125 21.253906 -56.480469 C 17.273438 -34.773438 12.242188 -17.273438 8.789062 -8.636719 C 5.332031 -7.8125 2.402344 -6.160156 0.449219 -2.402344 C 0.0742188 -1.726562 -0.0742188 -0.976562 0 -0.300781 L 0 -0.0742188 C 0 -0.0742188 0 0 0.0742188 0.0742188 C 0.226562 1.050781 0.75 1.878906 1.652344 2.402344 C 2.253906 2.855469 3.078125 3.078125 3.980469 3.078125 C 5.78125 3.078125 7.960938 2.101562 9.988281 -0.449219 C 11.339844 -2.101562 12.769531 -4.808594 14.121094 -8.1875 C 15.171875 -8.1875 16.375 -8.261719 17.5 -8.261719 C 24.183594 -8.410156 31.695312 -8.5625 37.628906 -14.644531 C 37.855469 -14.871094 37.855469 -15.246094 37.628906 -15.398438 C 37.402344 -15.621094 37.027344 -15.621094 36.878906 -15.398438 Z M 6.382812 -3.605469 C 4.207031 -0.449219 2.328125 0.527344 1.652344 0.375 C 1.503906 0.375 1.277344 0.300781 1.125 -0.148438 C 1.050781 -0.75 1.125 -1.351562 1.425781 -1.878906 C 3.078125 -5.03125 5.40625 -6.535156 8.261719 -7.359375 C 7.585938 -5.632812 6.910156 -4.429688 6.382812 -3.605469 Z M 6.382812 -3.605469 "/></g></g></g><g fill="#000000" fill-opacity="1"><g transform="translate(114.532388, 214.218015)"><g><path d="M 27.261719 -15.546875 C 26.964844 -15.621094 26.664062 -15.472656 26.585938 -15.246094 C 25.386719 -9.914062 23.058594 -2.628906 20.652344 1.425781 C 20.355469 1.878906 19.378906 3.003906 18.175781 2.402344 C 17.726562 2.101562 17.050781 -0.824219 18.25 -8.1875 C 19.300781 -14.644531 21.332031 -21.628906 23.734375 -26.8125 C 24.183594 -28.015625 23.882812 -29.515625 22.832031 -30.566406 L 21.707031 -31.621094 C 21.253906 -31.996094 20.730469 -32.21875 20.203125 -32.21875 C 19.679688 -32.144531 19.226562 -31.921875 18.925781 -31.46875 C 17.726562 -29.441406 16.597656 -26.585938 15.621094 -23.28125 L 15.546875 -23.433594 C 15.097656 -25.234375 14.195312 -26.585938 12.84375 -27.261719 C 11.792969 -27.714844 10.214844 -27.714844 8.636719 -27.113281 C 6.460938 -26.289062 2.554688 -23.808594 0.300781 -16.375 C -1.425781 -10.140625 -0.527344 -6.757812 0.449219 -4.957031 C 1.578125 -3.15625 3.15625 -2.703125 3.753906 -2.554688 C 4.054688 -2.476562 4.28125 -2.476562 4.582031 -2.476562 C 6.234375 -2.476562 8.1875 -3.453125 10.140625 -5.933594 C 10.140625 -6.082031 10.214844 -6.160156 10.363281 -6.234375 C 10.363281 -6.308594 10.441406 -6.308594 10.441406 -6.382812 C 11.417969 -7.585938 12.242188 -9.011719 13.070312 -10.890625 C 12.617188 -6.535156 12.316406 -0.0742188 14.195312 3.304688 C 14.945312 4.582031 15.921875 5.332031 17.199219 5.484375 L 17.5 5.484375 C 19.902344 5.484375 22.15625 2.179688 24.636719 -4.582031 C 26.511719 -9.613281 27.714844 -14.796875 27.789062 -14.871094 C 27.714844 -15.171875 27.5625 -15.472656 27.261719 -15.546875 Z M 14.871094 -20.277344 C 14.34375 -18.777344 14.042969 -17.273438 13.820312 -15.695312 C 12.390625 -11.792969 10.890625 -8.9375 9.464844 -6.984375 C 8.261719 -5.40625 6.835938 -5.332031 6.308594 -5.707031 C 5.558594 -6.082031 3.980469 -6.984375 6.082031 -15.621094 C 8.035156 -23.734375 11.566406 -25.085938 12.691406 -24.933594 C 13.519531 -24.785156 14.269531 -23.957031 14.570312 -23.132812 C 14.722656 -22.382812 14.871094 -21.40625 14.871094 -20.277344 Z M 13.292969 -38.90625 C 12.617188 -39.582031 11.941406 -39.804688 11.492188 -39.429688 L 6.234375 -34.472656 C 5.78125 -34.171875 5.859375 -33.496094 6.382812 -32.898438 L 6.683594 -32.597656 C 7.058594 -32.21875 7.511719 -31.996094 7.8125 -32.21875 L 14.195312 -36.578125 C 14.421875 -36.726562 14.570312 -36.878906 14.496094 -37.101562 C 14.496094 -37.402344 14.421875 -37.703125 14.121094 -38.078125 Z M 13.292969 -38.90625 "/></g></g></g><g fill="#000000" fill-opacity="1"><g transform="translate(141.190022, 214.218015)"><g/></g></g><g fill="#000000" fill-opacity="1"><g transform="translate(167.847656, 214.218015)"><g><path d="M 28.316406 -57.757812 C 27.640625 -58.132812 26.8125 -58.058594 25.835938 -57.683594 C 25.761719 -57.683594 25.6875 -57.605469 25.609375 -57.605469 L 25.085938 -57.304688 C 21.855469 -55.429688 17.574219 -49.796875 14.421875 -43.335938 L 15.996094 -53.851562 C 16.222656 -55.203125 15.621094 -56.554688 14.570312 -57.304688 L 13.21875 -58.359375 C 12.769531 -58.65625 12.242188 -58.734375 11.714844 -58.507812 C 11.191406 -58.28125 10.816406 -57.757812 10.816406 -57.15625 C 9.6875 -43.710938 3.453125 -8.5625 -1.277344 2.402344 C -1.425781 2.929688 -1.351562 3.453125 -0.976562 3.832031 C -0.75 4.128906 -0.375 4.207031 -0.0742188 4.207031 C 0.0742188 4.207031 0.226562 4.207031 0.375 4.128906 C 1.578125 3.679688 2.554688 3.078125 3.304688 2.402344 C 3.90625 1.878906 4.355469 1.125 4.582031 0.300781 C 5.332031 -2.101562 10.140625 -17.273438 13.746094 -38.980469 C 16.824219 -46.867188 22.382812 -54.828125 26.0625 -56.554688 C 26.289062 -56.628906 26.511719 -56.628906 26.738281 -56.480469 C 27.863281 -55.953125 28.464844 -52.347656 28.539062 -50.546875 C 28.839844 -45.964844 28.015625 -40.859375 25.988281 -35.148438 C 23.28125 -27.039062 20.054688 -19.527344 15.097656 -19.527344 C 13.894531 -19.527344 13.445312 -20.128906 13.367188 -20.277344 C 12.992188 -21.40625 13.070312 -22.53125 13.070312 -22.53125 C 13.144531 -22.832031 12.917969 -23.058594 12.617188 -23.132812 C 12.242188 -23.132812 12.015625 -22.90625 11.941406 -22.605469 C 11.941406 -22.457031 11.566406 -18.476562 14.722656 -17.199219 C 15.546875 -16.824219 16.375 -16.671875 17.199219 -16.671875 C 18.027344 -16.671875 18.925781 -16.824219 19.753906 -17.199219 C 23.433594 -18.777344 26.8125 -23.660156 29.816406 -31.695312 C 32.371094 -38.605469 33.496094 -44.238281 33.121094 -48.445312 C 32.746094 -52.5 31.320312 -56.40625 28.316406 -57.757812 Z M 28.316406 -57.757812 "/></g></g></g><g fill="#000000" fill-opacity="1"><g transform="translate(196.382595, 214.218015)"><g><path d="M 27.261719 -15.546875 C 26.964844 -15.621094 26.664062 -15.472656 26.585938 -15.246094 C 25.535156 -9.914062 23.433594 -2.628906 21.179688 1.425781 C 20.804688 1.878906 19.828125 3.003906 18.777344 2.402344 C 18.25 2.101562 17.5 -0.824219 18.476562 -8.1875 C 19.300781 -14.644531 21.179688 -21.628906 23.359375 -26.8125 C 23.808594 -28.015625 23.507812 -29.515625 22.304688 -30.566406 L 21.179688 -31.621094 C 20.804688 -31.996094 20.203125 -32.21875 19.679688 -32.21875 C 19.152344 -32.144531 18.777344 -31.921875 18.402344 -31.46875 C 17.347656 -29.441406 16.222656 -26.585938 15.320312 -23.28125 L 15.320312 -23.433594 C 14.871094 -25.234375 13.820312 -26.585938 12.46875 -27.261719 C 11.417969 -27.714844 9.839844 -27.714844 8.261719 -27.113281 C 6.160156 -26.289062 2.253906 -23.808594 0.226562 -16.375 C -1.277344 -10.140625 -0.226562 -6.757812 0.75 -4.957031 C 1.953125 -3.15625 3.53125 -2.703125 4.128906 -2.554688 C 4.429688 -2.476562 4.65625 -2.476562 4.957031 -2.476562 C 6.609375 -2.476562 8.5625 -3.453125 10.363281 -5.933594 C 10.441406 -6.082031 10.515625 -6.160156 10.664062 -6.234375 C 10.664062 -6.308594 10.738281 -6.308594 10.738281 -6.382812 C 11.566406 -7.585938 12.390625 -9.011719 13.144531 -10.890625 C 12.84375 -6.535156 12.769531 -0.0742188 14.796875 3.304688 C 15.546875 4.582031 16.523438 5.332031 17.800781 5.484375 L 18.101562 5.484375 C 20.503906 5.484375 22.683594 2.179688 25.011719 -4.582031 C 26.664062 -9.613281 27.714844 -14.796875 27.789062 -14.871094 C 27.714844 -15.171875 27.5625 -15.472656 27.261719 -15.546875 Z M 14.644531 -20.277344 C 14.269531 -18.777344 14.042969 -17.273438 13.820312 -15.695312 C 12.46875 -11.792969 11.117188 -8.9375 9.765625 -6.984375 C 8.5625 -5.40625 7.136719 -5.332031 6.535156 -5.707031 C 5.859375 -6.082031 4.28125 -6.984375 6.082031 -15.621094 C 7.734375 -23.734375 11.265625 -25.085938 12.390625 -24.933594 C 13.21875 -24.785156 13.96875 -23.957031 14.269531 -23.132812 C 14.496094 -22.382812 14.644531 -21.40625 14.644531 -20.277344 Z M 14.644531 -20.277344 "/></g></g></g><g fill="#000000" fill-opacity="1"><g transform="translate(223.04023, 214.218015)"><g><path d="M 27.113281 -15.398438 C 23.882812 -12.242188 19.753906 -8.710938 16.222656 -6.535156 C 17.5 -8.035156 18.925781 -10.363281 20.203125 -13.667969 C 22.53125 -19.753906 22.832031 -24.035156 21.105469 -26.4375 C 20.277344 -27.640625 19 -28.238281 17.425781 -28.238281 C 16.523438 -28.238281 15.246094 -27.414062 13.894531 -26.363281 L 13.746094 -26.210938 C 12.390625 -25.085938 10.964844 -23.582031 9.839844 -22.230469 C 8.335938 -20.429688 7.058594 -18.550781 6.007812 -16.75 C 6.683594 -19.527344 7.433594 -21.929688 8.113281 -23.882812 C 8.636719 -25.234375 8.410156 -26.738281 7.433594 -27.863281 L 6.609375 -28.914062 C 6.234375 -29.367188 5.632812 -29.59375 5.105469 -29.515625 C 4.507812 -29.367188 4.054688 -28.992188 3.832031 -28.464844 C -1.652344 -14.570312 -4.28125 8.9375 -4.429688 24.933594 C -4.429688 26.210938 -3.980469 27.339844 -3.230469 28.164062 C -2.628906 28.765625 -1.800781 29.140625 -0.902344 29.140625 C 0.148438 29.140625 1.050781 28.164062 1.050781 27.039062 C 1.050781 12.84375 2.628906 -0.527344 4.65625 -10.664062 C 5.859375 -15.996094 10.890625 -22.382812 14.421875 -25.386719 C 14.421875 -25.386719 14.496094 -25.386719 14.496094 -25.460938 C 15.246094 -25.988281 16.75 -26.363281 17.273438 -25.761719 C 17.875 -25.011719 17.949219 -20.277344 15.320312 -14.722656 C 12.992188 -9.613281 9.613281 -5.78125 8.410156 -5.933594 C 8.035156 -6.007812 7.886719 -6.757812 7.8125 -7.058594 C 7.585938 -10.0625 9.914062 -13.894531 9.914062 -13.96875 C 10.0625 -14.195312 9.988281 -14.570312 9.765625 -14.722656 C 9.539062 -14.871094 9.164062 -14.796875 9.011719 -14.496094 C 8.863281 -14.34375 6.382812 -10.363281 6.757812 -6.984375 L 6.757812 -6.835938 C 6.835938 -6.160156 6.984375 -5.558594 7.359375 -4.957031 C 7.960938 -3.90625 9.085938 -3.304688 10.363281 -3.230469 L 10.589844 -3.230469 C 16.074219 -3.230469 25.910156 -12.691406 27.863281 -14.644531 C 28.089844 -14.871094 28.089844 -15.171875 27.941406 -15.398438 C 27.714844 -15.621094 27.339844 -15.621094 27.113281 -15.398438 Z M 27.113281 -15.398438 "/></g></g></g><g fill="#000000" fill-opacity="1"><g transform="translate(249.772954, 214.218015)"><g><path d="M 1.878906 -1.800781 C 2.253906 -1.726562 2.628906 -1.652344 3.003906 -1.652344 C 5.257812 -1.652344 7.734375 -3.605469 10.515625 -7.585938 C 12.84375 -10.964844 14.570312 -14.570312 14.570312 -14.570312 C 14.722656 -14.871094 14.570312 -15.171875 14.269531 -15.320312 C 14.042969 -15.472656 13.667969 -15.320312 13.59375 -15.097656 C 12.242188 -12.167969 8.710938 -5.933594 5.40625 -3.605469 L 5.332031 -3.605469 C 5.03125 -3.378906 4.957031 -3.453125 4.882812 -3.53125 C 4.355469 -3.832031 3.679688 -5.558594 3.980469 -9.085938 C 4.429688 -13.59375 6.308594 -19.226562 7.886719 -22.984375 C 8.410156 -24.183594 7.960938 -25.609375 6.835938 -26.363281 L 5.632812 -27.113281 C 5.183594 -27.414062 4.730469 -27.414062 4.28125 -27.339844 C 3.832031 -27.1875 3.453125 -26.8125 3.304688 -26.363281 C 1.578125 -22.382812 -2.476562 -8.9375 -0.148438 -3.753906 C 0.300781 -2.777344 0.976562 -2.101562 1.878906 -1.800781 Z M 8.113281 -29.066406 C 8.488281 -28.914062 8.789062 -28.914062 9.085938 -28.914062 C 9.6875 -28.914062 10.441406 -29.292969 10.664062 -29.742188 L 12.390625 -32.671875 C 12.84375 -33.648438 12.917969 -34.472656 12.691406 -35.375 C 12.316406 -36.277344 11.566406 -37.027344 10.664062 -37.476562 L 10.441406 -37.554688 C 9.464844 -38.003906 8.410156 -37.628906 7.960938 -36.800781 L 6.082031 -32.746094 C 5.558594 -31.542969 6.007812 -30.191406 7.210938 -29.59375 Z M 8.113281 -29.066406 "/></g></g></g><g fill="#000000" fill-opacity="1"><g transform="translate(263.289499, 214.218015)"><g><path d="M 25.835938 -15.546875 C 25.535156 -15.621094 25.234375 -15.472656 25.085938 -15.246094 C 23.359375 -10.214844 20.355469 -5.257812 18.550781 -3.832031 C 18.476562 -3.753906 18.476562 -3.753906 18.402344 -3.753906 C 18.175781 -3.53125 17.949219 -3.453125 17.726562 -3.453125 C 17.648438 -3.378906 17.425781 -3.378906 17.199219 -3.832031 C 16.148438 -5.558594 18.402344 -13.59375 19.902344 -18.925781 C 21.03125 -22.683594 21.628906 -24.933594 21.554688 -25.761719 C 21.332031 -28.164062 19.828125 -30.71875 17.574219 -30.71875 C 16.148438 -30.71875 14.496094 -29.742188 12.691406 -27.941406 C 9.464844 -24.636719 6.308594 -19.152344 4.65625 -15.097656 C 4.730469 -18.777344 4.957031 -22.53125 5.484375 -25.160156 C 5.78125 -26.289062 5.257812 -27.488281 4.28125 -28.089844 L 2.929688 -28.914062 C 2.554688 -29.140625 2.179688 -29.140625 1.800781 -28.992188 C 1.425781 -28.839844 1.203125 -28.539062 1.050781 -28.164062 C -0.148438 -23.132812 -0.527344 -12.167969 0.902344 -5.707031 C 1.203125 -4.507812 2.179688 -3.679688 3.378906 -3.605469 L 3.832031 -3.53125 L 3.90625 -3.53125 C 4.28125 -3.53125 4.582031 -3.679688 4.808594 -3.980469 C 5.105469 -4.207031 5.257812 -4.582031 5.183594 -4.957031 C 4.957031 -6.382812 4.808594 -8.5625 4.730469 -10.964844 C 4.730469 -13.667969 8.9375 -22.53125 13.519531 -27.113281 C 14.195312 -27.863281 14.871094 -28.390625 15.472656 -28.839844 C 15.921875 -29.066406 16.671875 -29.214844 16.972656 -28.992188 C 17.273438 -28.691406 17.273438 -27.941406 16.972656 -26.964844 L 16.296875 -24.710938 C 14.796875 -19.976562 12.015625 -11.117188 11.941406 -6.082031 C 11.941406 -3.753906 12.316406 -2.476562 14.34375 -1.726562 C 15.019531 -1.503906 15.621094 -1.351562 16.148438 -1.351562 C 17.648438 -1.351562 18.550781 -2.253906 19.078125 -2.855469 L 19.226562 -2.929688 C 21.707031 -4.882812 24.710938 -10.738281 26.136719 -14.871094 C 26.289062 -15.097656 26.136719 -15.472656 25.835938 -15.546875 Z M 25.835938 -15.546875 "/></g></g></g><g fill="#000000" fill-opacity="1"><g transform="translate(288.295115, 214.218015)"><g><path d="M 1.878906 -1.800781 C 2.253906 -1.726562 2.628906 -1.652344 3.003906 -1.652344 C 5.257812 -1.652344 7.734375 -3.605469 10.515625 -7.585938 C 12.84375 -10.964844 14.570312 -14.570312 14.570312 -14.570312 C 14.722656 -14.871094 14.570312 -15.171875 14.269531 -15.320312 C 14.042969 -15.472656 13.667969 -15.320312 13.59375 -15.097656 C 12.242188 -12.167969 8.710938 -5.933594 5.40625 -3.605469 L 5.332031 -3.605469 C 5.03125 -3.378906 4.957031 -3.453125 4.882812 -3.53125 C 4.355469 -3.832031 3.679688 -5.558594 3.980469 -9.085938 C 4.429688 -13.59375 6.308594 -19.226562 7.886719 -22.984375 C 8.410156 -24.183594 7.960938 -25.609375 6.835938 -26.363281 L 5.632812 -27.113281 C 5.183594 -27.414062 4.730469 -27.414062 4.28125 -27.339844 C 3.832031 -27.1875 3.453125 -26.8125 3.304688 -26.363281 C 1.578125 -22.382812 -2.476562 -8.9375 -0.148438 -3.753906 C 0.300781 -2.777344 0.976562 -2.101562 1.878906 -1.800781 Z M 8.113281 -29.066406 C 8.488281 -28.914062 8.789062 -28.914062 9.085938 -28.914062 C 9.6875 -28.914062 10.441406 -29.292969 10.664062 -29.742188 L 12.390625 -32.671875 C 12.84375 -33.648438 12.917969 -34.472656 12.691406 -35.375 C 12.316406 -36.277344 11.566406 -37.027344 10.664062 -37.476562 L 10.441406 -37.554688 C 9.464844 -38.003906 8.410156 -37.628906 7.960938 -36.800781 L 6.082031 -32.746094 C 5.558594 -31.542969 6.007812 -30.191406 7.210938 -29.59375 Z M 8.113281 -29.066406 "/></g></g></g><g fill="#000000" fill-opacity="1"><g transform="translate(85.37378, 228.608452)"><g><path d="M 3.9375 0.21875 C 3.3125 0.21875 2.738281 0.0703125 2.21875 -0.21875 C 1.707031 -0.519531 1.296875 -0.945312 0.984375 -1.5 C 0.679688 -2.050781 0.53125 -2.691406 0.53125 -3.421875 C 0.53125 -4.160156 0.675781 -4.8125 0.96875 -5.375 C 1.269531 -5.9375 1.691406 -6.375 2.234375 -6.6875 C 2.773438 -7 3.410156 -7.15625 4.140625 -7.15625 C 4.765625 -7.15625 5.320312 -7.03125 5.8125 -6.78125 C 6.3125 -6.53125 6.5625 -6.140625 6.5625 -5.609375 C 6.5625 -5.273438 6.457031 -4.992188 6.25 -4.765625 C 6.050781 -4.535156 5.78125 -4.421875 5.4375 -4.421875 C 5.300781 -4.421875 5.1875 -4.441406 5.09375 -4.484375 C 5.007812 -4.535156 4.941406 -4.59375 4.890625 -4.65625 C 4.847656 -4.726562 4.832031 -4.78125 4.84375 -4.8125 C 4.84375 -4.832031 4.890625 -4.875 4.984375 -4.9375 C 5.085938 -5 5.179688 -5.085938 5.265625 -5.203125 C 5.347656 -5.328125 5.390625 -5.472656 5.390625 -5.640625 C 5.390625 -5.972656 5.273438 -6.234375 5.046875 -6.421875 C 4.828125 -6.617188 4.519531 -6.71875 4.125 -6.71875 C 3.675781 -6.71875 3.273438 -6.59375 2.921875 -6.34375 C 2.578125 -6.09375 2.304688 -5.722656 2.109375 -5.234375 C 1.921875 -4.742188 1.828125 -4.160156 1.828125 -3.484375 C 1.828125 -2.898438 1.929688 -2.367188 2.140625 -1.890625 C 2.347656 -1.410156 2.640625 -1.023438 3.015625 -0.734375 C 3.398438 -0.453125 3.835938 -0.3125 4.328125 -0.3125 C 4.722656 -0.3125 5.0625 -0.394531 5.34375 -0.5625 C 5.632812 -0.726562 5.890625 -0.992188 6.109375 -1.359375 C 6.148438 -1.429688 6.203125 -1.46875 6.265625 -1.46875 C 6.328125 -1.46875 6.394531 -1.441406 6.46875 -1.390625 C 6.582031 -1.316406 6.640625 -1.238281 6.640625 -1.15625 C 6.640625 -1.113281 6.625 -1.078125 6.59375 -1.046875 C 6.320312 -0.691406 6.0625 -0.425781 5.8125 -0.25 C 5.5625 -0.0703125 5.296875 0.046875 5.015625 0.109375 C 4.734375 0.179688 4.375 0.21875 3.9375 0.21875 Z M 3.9375 0.21875 "/></g></g></g><g fill="#000000" fill-opacity="1"><g transform="translate(92.397808, 228.608452)"><g><path d="M 4.03125 0.21875 C 3.332031 0.21875 2.71875 0.0507812 2.1875 -0.28125 C 1.65625 -0.613281 1.242188 -1.054688 0.953125 -1.609375 C 0.660156 -2.160156 0.515625 -2.75 0.515625 -3.375 C 0.515625 -4.144531 0.6875 -4.816406 1.03125 -5.390625 C 1.382812 -5.960938 1.832031 -6.398438 2.375 -6.703125 C 2.914062 -7.003906 3.46875 -7.15625 4.03125 -7.15625 C 4.726562 -7.15625 5.347656 -6.988281 5.890625 -6.65625 C 6.429688 -6.320312 6.84375 -5.878906 7.125 -5.328125 C 7.414062 -4.785156 7.5625 -4.203125 7.5625 -3.578125 C 7.5625 -2.804688 7.382812 -2.128906 7.03125 -1.546875 C 6.6875 -0.972656 6.238281 -0.535156 5.6875 -0.234375 C 5.132812 0.0664062 4.582031 0.21875 4.03125 0.21875 Z M 4.015625 -0.265625 C 4.515625 -0.265625 4.929688 -0.410156 5.265625 -0.703125 C 5.597656 -1.003906 5.847656 -1.40625 6.015625 -1.90625 C 6.179688 -2.40625 6.265625 -2.960938 6.265625 -3.578125 C 6.265625 -4.140625 6.175781 -4.65625 6 -5.125 C 5.832031 -5.601562 5.578125 -5.984375 5.234375 -6.265625 C 4.898438 -6.546875 4.492188 -6.6875 4.015625 -6.6875 C 3.285156 -6.6875 2.734375 -6.375 2.359375 -5.75 C 1.984375 -5.132812 1.796875 -4.351562 1.796875 -3.40625 C 1.796875 -2.832031 1.878906 -2.304688 2.046875 -1.828125 C 2.210938 -1.359375 2.457031 -0.976562 2.78125 -0.6875 C 3.113281 -0.40625 3.523438 -0.265625 4.015625 -0.265625 Z M 4.015625 -0.265625 "/></g></g></g><g fill="#000000" fill-opacity="1"><g transform="translate(100.477096, 228.608452)"><g><path d="M 0.578125 0.03125 C 0.515625 0.03125 0.460938 0.0078125 0.421875 -0.03125 C 0.390625 -0.0820312 0.375 -0.140625 0.375 -0.203125 C 0.382812 -0.304688 0.40625 -0.367188 0.4375 -0.390625 C 0.46875 -0.421875 0.519531 -0.4375 0.59375 -0.4375 C 0.75 -0.4375 0.863281 -0.445312 0.9375 -0.46875 C 1.019531 -0.5 1.097656 -0.5625 1.171875 -0.65625 C 1.253906 -0.75 1.351562 -0.894531 1.46875 -1.09375 L 3.9375 -5.671875 C 4.070312 -5.953125 4.140625 -6.148438 4.140625 -6.265625 C 4.140625 -6.367188 4.09375 -6.429688 4 -6.453125 C 3.914062 -6.484375 3.753906 -6.5 3.515625 -6.5 L 2.3125 -6.5 C 2.0625 -6.488281 1.867188 -6.445312 1.734375 -6.375 C 1.609375 -6.300781 1.503906 -6.179688 1.421875 -6.015625 C 1.335938 -5.859375 1.242188 -5.59375 1.140625 -5.21875 C 1.109375 -5.15625 1.0625 -5.109375 1 -5.078125 C 0.9375 -5.054688 0.859375 -5.054688 0.765625 -5.078125 C 0.703125 -5.085938 0.644531 -5.113281 0.59375 -5.15625 C 0.550781 -5.195312 0.53125 -5.253906 0.53125 -5.328125 L 0.765625 -6.703125 C 0.785156 -6.804688 0.816406 -6.867188 0.859375 -6.890625 C 0.898438 -6.921875 0.972656 -6.9375 1.078125 -6.9375 L 4.84375 -6.9375 C 5.269531 -6.9375 5.722656 -6.945312 6.203125 -6.96875 C 6.265625 -6.96875 6.3125 -6.941406 6.34375 -6.890625 C 6.382812 -6.847656 6.40625 -6.796875 6.40625 -6.734375 C 6.394531 -6.628906 6.375 -6.566406 6.34375 -6.546875 C 6.3125 -6.523438 6.269531 -6.507812 6.21875 -6.5 C 6.175781 -6.5 6.144531 -6.5 6.125 -6.5 C 5.882812 -6.488281 5.691406 -6.40625 5.546875 -6.25 C 5.410156 -6.101562 5.273438 -5.910156 5.140625 -5.671875 L 2.734375 -1.09375 C 2.671875 -0.945312 2.640625 -0.835938 2.640625 -0.765625 C 2.640625 -0.554688 2.835938 -0.445312 3.234375 -0.4375 L 4.53125 -0.4375 C 4.789062 -0.445312 4.984375 -0.488281 5.109375 -0.5625 C 5.242188 -0.644531 5.351562 -0.765625 5.4375 -0.921875 C 5.519531 -1.085938 5.613281 -1.351562 5.71875 -1.71875 C 5.757812 -1.84375 5.878906 -1.894531 6.078125 -1.875 C 6.148438 -1.851562 6.207031 -1.820312 6.25 -1.78125 C 6.300781 -1.738281 6.320312 -1.679688 6.3125 -1.609375 L 6.09375 -0.234375 C 6.070312 -0.140625 6.035156 -0.078125 5.984375 -0.046875 C 5.941406 -0.015625 5.875 0 5.78125 0 L 1.890625 0 C 1.484375 0 1.046875 0.0078125 0.578125 0.03125 Z M 0.578125 0.03125 "/></g></g></g><g fill="#000000" fill-opacity="1"><g transform="translate(107.303267, 228.608452)"><g><path d="M 0.65625 0.03125 C 0.59375 0.03125 0.546875 0.0078125 0.515625 -0.03125 C 0.484375 -0.0820312 0.46875 -0.140625 0.46875 -0.203125 C 0.46875 -0.316406 0.488281 -0.382812 0.53125 -0.40625 C 0.570312 -0.425781 0.640625 -0.4375 0.734375 -0.4375 C 0.953125 -0.4375 1.109375 -0.472656 1.203125 -0.546875 C 1.304688 -0.628906 1.375 -0.722656 1.40625 -0.828125 C 1.4375 -0.941406 1.457031 -1.09375 1.46875 -1.28125 L 1.46875 -5.65625 C 1.457031 -5.84375 1.4375 -5.988281 1.40625 -6.09375 C 1.375 -6.207031 1.304688 -6.300781 1.203125 -6.375 C 1.109375 -6.457031 0.953125 -6.5 0.734375 -6.5 L 0.671875 -6.5 C 0.609375 -6.5 0.554688 -6.507812 0.515625 -6.53125 C 0.484375 -6.5625 0.46875 -6.628906 0.46875 -6.734375 C 0.46875 -6.796875 0.484375 -6.847656 0.515625 -6.890625 C 0.546875 -6.941406 0.59375 -6.96875 0.65625 -6.96875 C 1.132812 -6.945312 1.570312 -6.9375 1.96875 -6.9375 C 2.40625 -6.9375 2.863281 -6.945312 3.34375 -6.96875 C 3.40625 -6.96875 3.453125 -6.941406 3.484375 -6.890625 C 3.523438 -6.847656 3.546875 -6.796875 3.546875 -6.734375 C 3.535156 -6.617188 3.507812 -6.550781 3.46875 -6.53125 C 3.425781 -6.507812 3.351562 -6.5 3.25 -6.5 C 3.039062 -6.5 2.882812 -6.457031 2.78125 -6.375 C 2.675781 -6.300781 2.609375 -6.207031 2.578125 -6.09375 C 2.554688 -5.976562 2.546875 -5.832031 2.546875 -5.65625 L 2.546875 -1.28125 C 2.546875 -1.101562 2.554688 -0.957031 2.578125 -0.84375 C 2.609375 -0.726562 2.675781 -0.628906 2.78125 -0.546875 C 2.882812 -0.472656 3.039062 -0.4375 3.25 -0.4375 L 3.328125 -0.4375 C 3.398438 -0.4375 3.453125 -0.421875 3.484375 -0.390625 C 3.515625 -0.367188 3.535156 -0.304688 3.546875 -0.203125 C 3.546875 -0.140625 3.523438 -0.0820312 3.484375 -0.03125 C 3.453125 0.0078125 3.40625 0.03125 3.34375 0.03125 C 2.875 0.0078125 2.421875 0 1.984375 0 C 1.578125 0 1.132812 0.0078125 0.65625 0.03125 Z M 0.65625 0.03125 "/></g></g></g><g fill="#000000" fill-opacity="1"><g transform="translate(111.304442, 228.608452)"><g><path d="M 0.6875 0.03125 C 0.613281 0.03125 0.5625 0.0078125 0.53125 -0.03125 C 0.5 -0.0820312 0.484375 -0.140625 0.484375 -0.203125 C 0.492188 -0.316406 0.515625 -0.382812 0.546875 -0.40625 C 0.585938 -0.425781 0.660156 -0.4375 0.765625 -0.4375 C 0.972656 -0.4375 1.125 -0.472656 1.21875 -0.546875 C 1.320312 -0.628906 1.382812 -0.722656 1.40625 -0.828125 C 1.425781 -0.929688 1.441406 -1.082031 1.453125 -1.28125 L 1.46875 -5.65625 C 1.46875 -5.875 1.441406 -6.039062 1.390625 -6.15625 C 1.347656 -6.269531 1.273438 -6.351562 1.171875 -6.40625 C 1.066406 -6.457031 0.921875 -6.5 0.734375 -6.53125 C 0.609375 -6.550781 0.53125 -6.570312 0.5 -6.59375 C 0.476562 -6.625 0.46875 -6.6875 0.46875 -6.78125 C 0.46875 -6.875 0.488281 -6.929688 0.53125 -6.953125 C 0.582031 -6.984375 0.660156 -7 0.765625 -7 C 1.210938 -7 1.566406 -6.96875 1.828125 -6.90625 C 2.097656 -6.84375 2.332031 -6.734375 2.53125 -6.578125 C 2.738281 -6.421875 2.960938 -6.175781 3.203125 -5.84375 L 6.21875 -1.875 L 6.25 -1.875 L 6.21875 -5.65625 C 6.21875 -5.851562 6.207031 -6.003906 6.1875 -6.109375 C 6.164062 -6.210938 6.101562 -6.300781 6 -6.375 C 5.90625 -6.457031 5.75 -6.5 5.53125 -6.5 L 5.46875 -6.5 C 5.394531 -6.5 5.34375 -6.507812 5.3125 -6.53125 C 5.28125 -6.5625 5.257812 -6.628906 5.25 -6.734375 C 5.25 -6.796875 5.265625 -6.847656 5.296875 -6.890625 C 5.335938 -6.941406 5.382812 -6.96875 5.4375 -6.96875 C 5.914062 -6.945312 6.269531 -6.9375 6.5 -6.9375 C 6.632812 -6.9375 6.898438 -6.945312 7.296875 -6.96875 L 7.53125 -6.96875 C 7.601562 -6.96875 7.65625 -6.941406 7.6875 -6.890625 C 7.71875 -6.847656 7.734375 -6.796875 7.734375 -6.734375 C 7.722656 -6.617188 7.695312 -6.550781 7.65625 -6.53125 C 7.625 -6.507812 7.554688 -6.5 7.453125 -6.5 C 7.242188 -6.5 7.085938 -6.457031 6.984375 -6.375 C 6.890625 -6.300781 6.832031 -6.210938 6.8125 -6.109375 C 6.789062 -6.003906 6.773438 -5.851562 6.765625 -5.65625 L 6.75 -0.109375 C 6.738281 -0.015625 6.644531 0.03125 6.46875 0.03125 C 6.332031 0.03125 6.226562 -0.015625 6.15625 -0.109375 L 2 -5.65625 L 1.96875 -5.65625 L 1.984375 -1.28125 C 1.992188 -1.082031 2.007812 -0.929688 2.03125 -0.828125 C 2.050781 -0.722656 2.109375 -0.628906 2.203125 -0.546875 C 2.304688 -0.472656 2.46875 -0.4375 2.6875 -0.4375 L 2.75 -0.4375 C 2.820312 -0.4375 2.875 -0.421875 2.90625 -0.390625 C 2.9375 -0.367188 2.957031 -0.304688 2.96875 -0.203125 C 2.96875 -0.140625 2.953125 -0.0820312 2.921875 -0.03125 C 2.890625 0.0078125 2.835938 0.03125 2.765625 0.03125 C 2.296875 0.0078125 1.941406 0 1.703125 0 C 1.554688 0 1.300781 0.00390625 0.9375 0.015625 Z M 0.6875 0.03125 "/></g></g></g><g fill="#000000" fill-opacity="1"><g transform="translate(119.405714, 228.608452)"><g><path d="M 0.671875 0.03125 C 0.609375 0.03125 0.554688 0.0078125 0.515625 -0.03125 C 0.484375 -0.0820312 0.46875 -0.140625 0.46875 -0.203125 C 0.476562 -0.316406 0.5 -0.382812 0.53125 -0.40625 C 0.570312 -0.425781 0.644531 -0.4375 0.75 -0.4375 C 0.957031 -0.4375 1.113281 -0.472656 1.21875 -0.546875 C 1.320312 -0.628906 1.382812 -0.726562 1.40625 -0.84375 C 1.4375 -0.957031 1.457031 -1.101562 1.46875 -1.28125 L 1.46875 -5.65625 C 1.457031 -5.832031 1.4375 -5.976562 1.40625 -6.09375 C 1.382812 -6.207031 1.320312 -6.300781 1.21875 -6.375 C 1.113281 -6.457031 0.957031 -6.5 0.75 -6.5 L 0.6875 -6.5 C 0.613281 -6.5 0.5625 -6.507812 0.53125 -6.53125 C 0.5 -6.5625 0.476562 -6.628906 0.46875 -6.734375 C 0.46875 -6.796875 0.484375 -6.847656 0.515625 -6.890625 C 0.554688 -6.941406 0.609375 -6.96875 0.671875 -6.96875 C 1.148438 -6.945312 1.582031 -6.9375 1.96875 -6.9375 C 2.40625 -6.9375 2.863281 -6.945312 3.34375 -6.96875 C 3.40625 -6.96875 3.453125 -6.941406 3.484375 -6.890625 C 3.523438 -6.847656 3.546875 -6.796875 3.546875 -6.734375 C 3.535156 -6.617188 3.507812 -6.550781 3.46875 -6.53125 C 3.4375 -6.507812 3.367188 -6.5 3.265625 -6.5 C 3.054688 -6.5 2.898438 -6.457031 2.796875 -6.375 C 2.691406 -6.300781 2.625 -6.207031 2.59375 -6.09375 C 2.570312 -5.976562 2.554688 -5.832031 2.546875 -5.65625 L 2.546875 -3.703125 L 6 -3.703125 L 6 -5.65625 C 6 -5.832031 5.984375 -5.976562 5.953125 -6.09375 C 5.929688 -6.207031 5.867188 -6.300781 5.765625 -6.375 C 5.660156 -6.457031 5.503906 -6.5 5.296875 -6.5 L 5.21875 -6.5 C 5.144531 -6.5 5.09375 -6.507812 5.0625 -6.53125 C 5.03125 -6.5625 5.007812 -6.628906 5 -6.734375 C 5 -6.796875 5.015625 -6.847656 5.046875 -6.890625 C 5.085938 -6.941406 5.140625 -6.96875 5.203125 -6.96875 C 5.679688 -6.945312 6.140625 -6.9375 6.578125 -6.9375 C 6.984375 -6.9375 7.421875 -6.945312 7.890625 -6.96875 C 7.953125 -6.96875 8 -6.941406 8.03125 -6.890625 C 8.0625 -6.847656 8.078125 -6.796875 8.078125 -6.734375 C 8.078125 -6.617188 8.054688 -6.550781 8.015625 -6.53125 C 7.972656 -6.507812 7.90625 -6.5 7.8125 -6.5 C 7.59375 -6.5 7.429688 -6.457031 7.328125 -6.375 C 7.222656 -6.300781 7.15625 -6.207031 7.125 -6.09375 C 7.101562 -5.976562 7.085938 -5.832031 7.078125 -5.65625 L 7.078125 -1.28125 C 7.085938 -1.101562 7.101562 -0.957031 7.125 -0.84375 C 7.15625 -0.726562 7.222656 -0.628906 7.328125 -0.546875 C 7.429688 -0.472656 7.59375 -0.4375 7.8125 -0.4375 L 7.875 -0.4375 C 7.9375 -0.4375 7.984375 -0.421875 8.015625 -0.390625 C 8.054688 -0.367188 8.078125 -0.304688 8.078125 -0.203125 C 8.078125 -0.140625 8.0625 -0.0820312 8.03125 -0.03125 C 8 0.0078125 7.953125 0.03125 7.890625 0.03125 C 7.421875 0.0078125 6.976562 0 6.5625 0 C 6.132812 0 5.679688 0.0078125 5.203125 0.03125 C 5.140625 0.03125 5.085938 0.0078125 5.046875 -0.03125 C 5.015625 -0.0820312 5 -0.140625 5 -0.203125 C 5.007812 -0.316406 5.035156 -0.382812 5.078125 -0.40625 C 5.117188 -0.425781 5.191406 -0.4375 5.296875 -0.4375 C 5.503906 -0.4375 5.660156 -0.472656 5.765625 -0.546875 C 5.867188 -0.628906 5.929688 -0.726562 5.953125 -0.84375 C 5.984375 -0.957031 6 -1.101562 6 -1.28125 L 6 -3.234375 L 2.546875 -3.234375 L 2.546875 -1.28125 C 2.554688 -1.101562 2.570312 -0.957031 2.59375 -0.84375 C 2.625 -0.726562 2.691406 -0.628906 2.796875 -0.546875 C 2.898438 -0.472656 3.054688 -0.4375 3.265625 -0.4375 L 3.328125 -0.4375 C 3.398438 -0.4375 3.453125 -0.421875 3.484375 -0.390625 C 3.515625 -0.367188 3.535156 -0.304688 3.546875 -0.203125 C 3.546875 -0.140625 3.523438 -0.0820312 3.484375 -0.03125 C 3.453125 0.0078125 3.40625 0.03125 3.34375 0.03125 C 2.875 0.0078125 2.421875 0 1.984375 0 C 1.585938 0 1.148438 0.0078125 0.671875 0.03125 Z M 0.671875 0.03125 "/></g></g></g><g fill="#000000" fill-opacity="1"><g transform="translate(127.94668, 228.608452)"><g><path d="M 0.0625 0.03125 C 0 0.03125 -0.046875 0.0078125 -0.078125 -0.03125 C -0.109375 -0.0820312 -0.125 -0.140625 -0.125 -0.203125 C -0.125 -0.316406 -0.101562 -0.382812 -0.0625 -0.40625 C -0.03125 -0.425781 0.0078125 -0.4375 0.0625 -0.4375 C 0.113281 -0.4375 0.148438 -0.4375 0.171875 -0.4375 C 0.390625 -0.4375 0.546875 -0.492188 0.640625 -0.609375 C 0.742188 -0.722656 0.828125 -0.847656 0.890625 -0.984375 C 0.953125 -1.128906 0.992188 -1.226562 1.015625 -1.28125 L 2.953125 -5.84375 C 2.992188 -5.945312 3.015625 -6.035156 3.015625 -6.109375 C 3.015625 -6.234375 2.960938 -6.328125 2.859375 -6.390625 C 2.753906 -6.453125 2.613281 -6.5 2.4375 -6.53125 C 2.3125 -6.550781 2.234375 -6.570312 2.203125 -6.59375 C 2.171875 -6.625 2.15625 -6.6875 2.15625 -6.78125 C 2.15625 -6.875 2.175781 -6.929688 2.21875 -6.953125 C 2.269531 -6.984375 2.347656 -7 2.453125 -7 C 2.816406 -7 3.109375 -6.972656 3.328125 -6.921875 C 3.546875 -6.867188 3.734375 -6.757812 3.890625 -6.59375 C 4.054688 -6.425781 4.207031 -6.175781 4.34375 -5.84375 L 6.1875 -1.28125 C 6.300781 -1.007812 6.410156 -0.800781 6.515625 -0.65625 C 6.617188 -0.519531 6.769531 -0.445312 6.96875 -0.4375 L 7.046875 -0.4375 C 7.117188 -0.4375 7.164062 -0.421875 7.1875 -0.390625 C 7.21875 -0.367188 7.238281 -0.304688 7.25 -0.203125 C 7.25 -0.140625 7.234375 -0.0820312 7.203125 -0.03125 C 7.171875 0.0078125 7.117188 0.03125 7.046875 0.03125 C 6.578125 0.0078125 6.175781 0 5.84375 0 C 5.40625 0 4.953125 0.0078125 4.484375 0.03125 C 4.410156 0.03125 4.359375 0.0078125 4.328125 -0.03125 C 4.296875 -0.0820312 4.28125 -0.140625 4.28125 -0.203125 C 4.289062 -0.304688 4.304688 -0.367188 4.328125 -0.390625 C 4.359375 -0.421875 4.410156 -0.4375 4.484375 -0.4375 C 4.734375 -0.4375 4.910156 -0.457031 5.015625 -0.5 C 5.117188 -0.550781 5.171875 -0.640625 5.171875 -0.765625 C 5.171875 -0.859375 5.125 -1.03125 5.03125 -1.28125 L 4.65625 -2.203125 L 1.953125 -2.203125 C 1.765625 -1.742188 1.65625 -1.476562 1.625 -1.40625 C 1.601562 -1.332031 1.59375 -1.289062 1.59375 -1.28125 C 1.507812 -1.007812 1.46875 -0.832031 1.46875 -0.75 C 1.46875 -0.625 1.519531 -0.539062 1.625 -0.5 C 1.738281 -0.457031 1.945312 -0.4375 2.25 -0.4375 L 2.328125 -0.4375 C 2.398438 -0.4375 2.445312 -0.421875 2.46875 -0.390625 C 2.5 -0.367188 2.519531 -0.304688 2.53125 -0.203125 C 2.53125 -0.140625 2.515625 -0.0820312 2.484375 -0.03125 C 2.453125 0.0078125 2.398438 0.03125 2.328125 0.03125 C 1.859375 0.0078125 1.460938 0 1.140625 0 C 0.898438 0 0.539062 0.0078125 0.0625 0.03125 Z M 2.15625 -2.671875 L 4.46875 -2.671875 L 3.359375 -5.5 L 3.328125 -5.5 Z M 2.15625 -2.671875 "/></g></g></g><g fill="#000000" fill-opacity="1"><g transform="translate(135.124608, 228.608452)"><g/></g></g><g fill="#000000" fill-opacity="1"><g transform="translate(137.575875, 228.608452)"><g><path d="M 0.65625 0.03125 C 0.601562 0.03125 0.554688 0.0078125 0.515625 -0.03125 C 0.484375 -0.0820312 0.46875 -0.140625 0.46875 -0.203125 C 0.46875 -0.316406 0.488281 -0.382812 0.53125 -0.40625 C 0.570312 -0.425781 0.644531 -0.4375 0.75 -0.4375 C 0.957031 -0.4375 1.113281 -0.472656 1.21875 -0.546875 C 1.320312 -0.628906 1.382812 -0.726562 1.40625 -0.84375 C 1.4375 -0.957031 1.457031 -1.101562 1.46875 -1.28125 L 1.46875 -5.65625 C 1.457031 -5.832031 1.4375 -5.976562 1.40625 -6.09375 C 1.382812 -6.207031 1.320312 -6.300781 1.21875 -6.375 C 1.113281 -6.457031 0.957031 -6.5 0.75 -6.5 L 0.6875 -6.5 C 0.613281 -6.5 0.554688 -6.507812 0.515625 -6.53125 C 0.484375 -6.5625 0.46875 -6.628906 0.46875 -6.734375 C 0.46875 -6.796875 0.484375 -6.847656 0.515625 -6.890625 C 0.554688 -6.941406 0.601562 -6.96875 0.65625 -6.96875 C 1.132812 -6.945312 1.578125 -6.9375 1.984375 -6.9375 L 3.625 -6.9375 C 4.269531 -6.9375 4.890625 -6.804688 5.484375 -6.546875 C 6.078125 -6.285156 6.375 -5.757812 6.375 -4.96875 C 6.375 -4.519531 6.242188 -4.125 5.984375 -3.78125 C 5.722656 -3.4375 5.378906 -3.164062 4.953125 -2.96875 C 4.535156 -2.78125 4.097656 -2.6875 3.640625 -2.6875 C 3.222656 -2.6875 2.859375 -2.75 2.546875 -2.875 L 2.546875 -1.28125 C 2.546875 -1.101562 2.554688 -0.957031 2.578125 -0.84375 C 2.609375 -0.726562 2.675781 -0.628906 2.78125 -0.546875 C 2.882812 -0.472656 3.039062 -0.4375 3.25 -0.4375 L 3.328125 -0.4375 C 3.398438 -0.4375 3.453125 -0.421875 3.484375 -0.390625 C 3.515625 -0.367188 3.535156 -0.304688 3.546875 -0.203125 C 3.546875 -0.140625 3.523438 -0.0820312 3.484375 -0.03125 C 3.453125 0.0078125 3.40625 0.03125 3.34375 0.03125 C 2.875 0.0078125 2.414062 0 1.96875 0 C 1.570312 0 1.132812 0.0078125 0.65625 0.03125 Z M 3.328125 -3.1875 C 3.585938 -3.1875 3.859375 -3.238281 4.140625 -3.34375 C 4.421875 -3.457031 4.660156 -3.644531 4.859375 -3.90625 C 5.054688 -4.164062 5.15625 -4.503906 5.15625 -4.921875 C 5.15625 -5.566406 4.945312 -5.992188 4.53125 -6.203125 C 4.125 -6.421875 3.691406 -6.53125 3.234375 -6.53125 C 3.046875 -6.53125 2.898438 -6.507812 2.796875 -6.46875 C 2.703125 -6.425781 2.632812 -6.347656 2.59375 -6.234375 C 2.5625 -6.117188 2.546875 -5.9375 2.546875 -5.6875 L 2.546875 -3.3125 C 2.722656 -3.226562 2.984375 -3.1875 3.328125 -3.1875 Z M 3.328125 -3.1875 "/></g></g></g><g fill="#000000" fill-opacity="1"><g transform="translate(144.215176, 228.608452)"><g><path d="M 0.65625 0.03125 C 0.601562 0.03125 0.554688 0.0078125 0.515625 -0.03125 C 0.484375 -0.0820312 0.46875 -0.140625 0.46875 -0.203125 C 0.476562 -0.316406 0.5 -0.382812 0.53125 -0.40625 C 0.570312 -0.425781 0.644531 -0.4375 0.75 -0.4375 C 0.957031 -0.4375 1.113281 -0.472656 1.21875 -0.546875 C 1.320312 -0.628906 1.382812 -0.726562 1.40625 -0.84375 C 1.4375 -0.957031 1.457031 -1.101562 1.46875 -1.28125 L 1.46875 -5.65625 C 1.457031 -5.832031 1.4375 -5.976562 1.40625 -6.09375 C 1.382812 -6.207031 1.320312 -6.300781 1.21875 -6.375 C 1.113281 -6.457031 0.957031 -6.5 0.75 -6.5 L 0.6875 -6.5 C 0.613281 -6.5 0.5625 -6.507812 0.53125 -6.53125 C 0.5 -6.5625 0.476562 -6.628906 0.46875 -6.734375 C 0.46875 -6.796875 0.484375 -6.847656 0.515625 -6.890625 C 0.554688 -6.941406 0.601562 -6.96875 0.65625 -6.96875 C 1.144531 -6.945312 1.582031 -6.9375 1.96875 -6.9375 L 5.421875 -6.9375 C 5.609375 -6.9375 5.703125 -6.847656 5.703125 -6.671875 L 5.734375 -5.140625 C 5.734375 -5.066406 5.703125 -5.007812 5.640625 -4.96875 C 5.578125 -4.9375 5.507812 -4.921875 5.4375 -4.921875 C 5.351562 -4.921875 5.273438 -4.9375 5.203125 -4.96875 C 5.140625 -5 5.109375 -5.046875 5.109375 -5.109375 C 5.046875 -5.472656 4.976562 -5.75 4.90625 -5.9375 C 4.84375 -6.125 4.742188 -6.257812 4.609375 -6.34375 C 4.472656 -6.4375 4.28125 -6.488281 4.03125 -6.5 L 2.546875 -6.5 L 2.546875 -3.703125 L 4.546875 -3.703125 C 4.597656 -3.703125 4.632812 -3.675781 4.65625 -3.625 C 4.6875 -3.570312 4.703125 -3.515625 4.703125 -3.453125 C 4.703125 -3.390625 4.6875 -3.335938 4.65625 -3.296875 C 4.632812 -3.253906 4.597656 -3.234375 4.546875 -3.234375 L 2.546875 -3.234375 L 2.546875 -1.15625 C 2.566406 -1 2.585938 -0.875 2.609375 -0.78125 C 2.628906 -0.695312 2.691406 -0.613281 2.796875 -0.53125 C 2.910156 -0.457031 3.085938 -0.425781 3.328125 -0.4375 L 4.328125 -0.4375 C 4.585938 -0.445312 4.78125 -0.488281 4.90625 -0.5625 C 5.039062 -0.644531 5.144531 -0.765625 5.21875 -0.921875 C 5.300781 -1.085938 5.398438 -1.351562 5.515625 -1.71875 C 5.566406 -1.84375 5.691406 -1.894531 5.890625 -1.875 C 5.960938 -1.851562 6.023438 -1.820312 6.078125 -1.78125 C 6.128906 -1.738281 6.15625 -1.679688 6.15625 -1.609375 L 5.921875 -0.234375 C 5.898438 -0.140625 5.867188 -0.078125 5.828125 -0.046875 C 5.785156 -0.015625 5.710938 0 5.609375 0 L 1.984375 0 C 1.585938 0 1.144531 0.0078125 0.65625 0.03125 Z M 0.65625 0.03125 "/></g></g></g><g fill="#000000" fill-opacity="1"><g transform="translate(150.744556, 228.608452)"><g><path d="M 0.65625 0.03125 C 0.601562 0.03125 0.554688 0.0078125 0.515625 -0.03125 C 0.484375 -0.0820312 0.46875 -0.140625 0.46875 -0.203125 C 0.476562 -0.316406 0.5 -0.382812 0.53125 -0.40625 C 0.570312 -0.425781 0.644531 -0.4375 0.75 -0.4375 C 0.957031 -0.4375 1.113281 -0.472656 1.21875 -0.546875 C 1.320312 -0.628906 1.382812 -0.726562 1.40625 -0.84375 C 1.4375 -0.957031 1.457031 -1.101562 1.46875 -1.28125 L 1.46875 -5.65625 C 1.457031 -5.832031 1.4375 -5.976562 1.40625 -6.09375 C 1.382812 -6.207031 1.320312 -6.300781 1.21875 -6.375 C 1.113281 -6.457031 0.957031 -6.5 0.75 -6.5 L 0.6875 -6.5 C 0.613281 -6.5 0.5625 -6.507812 0.53125 -6.53125 C 0.5 -6.5625 0.476562 -6.628906 0.46875 -6.734375 C 0.46875 -6.796875 0.484375 -6.847656 0.515625 -6.890625 C 0.554688 -6.941406 0.601562 -6.96875 0.65625 -6.96875 C 1.144531 -6.945312 1.582031 -6.9375 1.96875 -6.9375 L 3.6875 -6.9375 C 4.382812 -6.9375 5.019531 -6.796875 5.59375 -6.515625 C 6.175781 -6.234375 6.632812 -5.828125 6.96875 -5.296875 C 7.300781 -4.773438 7.46875 -4.15625 7.46875 -3.4375 C 7.46875 -2.6875 7.28125 -2.050781 6.90625 -1.53125 C 6.53125 -1.019531 6.035156 -0.632812 5.421875 -0.375 C 4.816406 -0.125 4.171875 0 3.484375 0 L 1.96875 0 C 1.582031 0 1.144531 0.0078125 0.65625 0.03125 Z M 3.65625 -0.40625 C 4.507812 -0.40625 5.132812 -0.671875 5.53125 -1.203125 C 5.9375 -1.734375 6.140625 -2.476562 6.140625 -3.4375 C 6.140625 -4.03125 6.03125 -4.5625 5.8125 -5.03125 C 5.59375 -5.507812 5.273438 -5.878906 4.859375 -6.140625 C 4.453125 -6.410156 3.96875 -6.546875 3.40625 -6.546875 L 2.546875 -6.53125 L 2.546875 -1.15625 C 2.546875 -0.863281 2.628906 -0.664062 2.796875 -0.5625 C 2.972656 -0.457031 3.257812 -0.40625 3.65625 -0.40625 Z M 3.65625 -0.40625 "/></g></g></g><g fill="#000000" fill-opacity="1"><g transform="translate(158.746894, 228.608452)"><g><path d="M 0.0625 0.03125 C 0 0.03125 -0.046875 0.0078125 -0.078125 -0.03125 C -0.109375 -0.0820312 -0.125 -0.140625 -0.125 -0.203125 C -0.125 -0.316406 -0.101562 -0.382812 -0.0625 -0.40625 C -0.03125 -0.425781 0.0078125 -0.4375 0.0625 -0.4375 C 0.113281 -0.4375 0.148438 -0.4375 0.171875 -0.4375 C 0.390625 -0.4375 0.546875 -0.492188 0.640625 -0.609375 C 0.742188 -0.722656 0.828125 -0.847656 0.890625 -0.984375 C 0.953125 -1.128906 0.992188 -1.226562 1.015625 -1.28125 L 2.953125 -5.84375 C 2.992188 -5.945312 3.015625 -6.035156 3.015625 -6.109375 C 3.015625 -6.234375 2.960938 -6.328125 2.859375 -6.390625 C 2.753906 -6.453125 2.613281 -6.5 2.4375 -6.53125 C 2.3125 -6.550781 2.234375 -6.570312 2.203125 -6.59375 C 2.171875 -6.625 2.15625 -6.6875 2.15625 -6.78125 C 2.15625 -6.875 2.175781 -6.929688 2.21875 -6.953125 C 2.269531 -6.984375 2.347656 -7 2.453125 -7 C 2.816406 -7 3.109375 -6.972656 3.328125 -6.921875 C 3.546875 -6.867188 3.734375 -6.757812 3.890625 -6.59375 C 4.054688 -6.425781 4.207031 -6.175781 4.34375 -5.84375 L 6.1875 -1.28125 C 6.300781 -1.007812 6.410156 -0.800781 6.515625 -0.65625 C 6.617188 -0.519531 6.769531 -0.445312 6.96875 -0.4375 L 7.046875 -0.4375 C 7.117188 -0.4375 7.164062 -0.421875 7.1875 -0.390625 C 7.21875 -0.367188 7.238281 -0.304688 7.25 -0.203125 C 7.25 -0.140625 7.234375 -0.0820312 7.203125 -0.03125 C 7.171875 0.0078125 7.117188 0.03125 7.046875 0.03125 C 6.578125 0.0078125 6.175781 0 5.84375 0 C 5.40625 0 4.953125 0.0078125 4.484375 0.03125 C 4.410156 0.03125 4.359375 0.0078125 4.328125 -0.03125 C 4.296875 -0.0820312 4.28125 -0.140625 4.28125 -0.203125 C 4.289062 -0.304688 4.304688 -0.367188 4.328125 -0.390625 C 4.359375 -0.421875 4.410156 -0.4375 4.484375 -0.4375 C 4.734375 -0.4375 4.910156 -0.457031 5.015625 -0.5 C 5.117188 -0.550781 5.171875 -0.640625 5.171875 -0.765625 C 5.171875 -0.859375 5.125 -1.03125 5.03125 -1.28125 L 4.65625 -2.203125 L 1.953125 -2.203125 C 1.765625 -1.742188 1.65625 -1.476562 1.625 -1.40625 C 1.601562 -1.332031 1.59375 -1.289062 1.59375 -1.28125 C 1.507812 -1.007812 1.46875 -0.832031 1.46875 -0.75 C 1.46875 -0.625 1.519531 -0.539062 1.625 -0.5 C 1.738281 -0.457031 1.945312 -0.4375 2.25 -0.4375 L 2.328125 -0.4375 C 2.398438 -0.4375 2.445312 -0.421875 2.46875 -0.390625 C 2.5 -0.367188 2.519531 -0.304688 2.53125 -0.203125 C 2.53125 -0.140625 2.515625 -0.0820312 2.484375 -0.03125 C 2.453125 0.0078125 2.398438 0.03125 2.328125 0.03125 C 1.859375 0.0078125 1.460938 0 1.140625 0 C 0.898438 0 0.539062 0.0078125 0.0625 0.03125 Z M 2.15625 -2.671875 L 4.46875 -2.671875 L 3.359375 -5.5 L 3.328125 -5.5 Z M 2.15625 -2.671875 "/></g></g></g><g fill="#000000" fill-opacity="1"><g transform="translate(165.924823, 228.608452)"><g><path d="M 3.953125 0.21875 C 3.304688 0.21875 2.722656 0.0859375 2.203125 -0.171875 C 1.691406 -0.441406 1.285156 -0.847656 0.984375 -1.390625 C 0.679688 -1.941406 0.53125 -2.617188 0.53125 -3.421875 C 0.53125 -4.160156 0.691406 -4.8125 1.015625 -5.375 C 1.347656 -5.9375 1.800781 -6.375 2.375 -6.6875 C 2.957031 -7 3.625 -7.15625 4.375 -7.15625 C 4.738281 -7.15625 5.097656 -7.097656 5.453125 -6.984375 C 5.816406 -6.878906 6.113281 -6.707031 6.34375 -6.46875 C 6.582031 -6.238281 6.703125 -5.953125 6.703125 -5.609375 C 6.703125 -5.285156 6.609375 -5.003906 6.421875 -4.765625 C 6.234375 -4.535156 5.984375 -4.421875 5.671875 -4.421875 C 5.515625 -4.421875 5.363281 -4.457031 5.21875 -4.53125 C 5.070312 -4.601562 5 -4.695312 5 -4.8125 C 5 -4.820312 5.046875 -4.863281 5.140625 -4.9375 C 5.242188 -5.007812 5.335938 -5.109375 5.421875 -5.234375 C 5.503906 -5.359375 5.546875 -5.507812 5.546875 -5.6875 C 5.546875 -6 5.421875 -6.25 5.171875 -6.4375 C 4.929688 -6.625 4.625 -6.71875 4.25 -6.71875 C 3.789062 -6.71875 3.378906 -6.59375 3.015625 -6.34375 C 2.648438 -6.09375 2.359375 -5.722656 2.140625 -5.234375 C 1.929688 -4.742188 1.828125 -4.160156 1.828125 -3.484375 C 1.828125 -2.835938 1.929688 -2.273438 2.140625 -1.796875 C 2.347656 -1.316406 2.640625 -0.945312 3.015625 -0.6875 C 3.398438 -0.4375 3.835938 -0.3125 4.328125 -0.3125 C 4.566406 -0.3125 4.773438 -0.320312 4.953125 -0.34375 C 5.128906 -0.375 5.316406 -0.425781 5.515625 -0.5 L 5.515625 -1.609375 C 5.515625 -1.867188 5.503906 -2.050781 5.484375 -2.15625 C 5.472656 -2.257812 5.414062 -2.335938 5.3125 -2.390625 C 5.21875 -2.441406 5.050781 -2.46875 4.8125 -2.46875 C 4.738281 -2.46875 4.679688 -2.476562 4.640625 -2.5 C 4.609375 -2.53125 4.585938 -2.59375 4.578125 -2.6875 C 4.578125 -2.757812 4.597656 -2.816406 4.640625 -2.859375 C 4.679688 -2.910156 4.738281 -2.9375 4.8125 -2.9375 C 5.269531 -2.914062 5.671875 -2.90625 6.015625 -2.90625 C 6.347656 -2.90625 6.742188 -2.914062 7.203125 -2.9375 C 7.265625 -2.9375 7.3125 -2.910156 7.34375 -2.859375 C 7.382812 -2.816406 7.40625 -2.757812 7.40625 -2.6875 C 7.40625 -2.59375 7.382812 -2.53125 7.34375 -2.5 C 7.3125 -2.476562 7.253906 -2.46875 7.171875 -2.46875 C 6.953125 -2.46875 6.796875 -2.4375 6.703125 -2.375 C 6.609375 -2.3125 6.546875 -2.226562 6.515625 -2.125 C 6.492188 -2.019531 6.484375 -1.847656 6.484375 -1.609375 L 6.484375 -0.3125 C 6.054688 -0.113281 5.660156 0.0195312 5.296875 0.09375 C 4.941406 0.175781 4.492188 0.21875 3.953125 0.21875 Z M 3.953125 0.21875 "/></g></g></g><g fill="#000000" fill-opacity="1"><g transform="translate(173.531447, 228.608452)"><g><path d="M 4.03125 0.21875 C 3.332031 0.21875 2.71875 0.0507812 2.1875 -0.28125 C 1.65625 -0.613281 1.242188 -1.054688 0.953125 -1.609375 C 0.660156 -2.160156 0.515625 -2.75 0.515625 -3.375 C 0.515625 -4.144531 0.6875 -4.816406 1.03125 -5.390625 C 1.382812 -5.960938 1.832031 -6.398438 2.375 -6.703125 C 2.914062 -7.003906 3.46875 -7.15625 4.03125 -7.15625 C 4.726562 -7.15625 5.347656 -6.988281 5.890625 -6.65625 C 6.429688 -6.320312 6.84375 -5.878906 7.125 -5.328125 C 7.414062 -4.785156 7.5625 -4.203125 7.5625 -3.578125 C 7.5625 -2.804688 7.382812 -2.128906 7.03125 -1.546875 C 6.6875 -0.972656 6.238281 -0.535156 5.6875 -0.234375 C 5.132812 0.0664062 4.582031 0.21875 4.03125 0.21875 Z M 4.015625 -0.265625 C 4.515625 -0.265625 4.929688 -0.410156 5.265625 -0.703125 C 5.597656 -1.003906 5.847656 -1.40625 6.015625 -1.90625 C 6.179688 -2.40625 6.265625 -2.960938 6.265625 -3.578125 C 6.265625 -4.140625 6.175781 -4.65625 6 -5.125 C 5.832031 -5.601562 5.578125 -5.984375 5.234375 -6.265625 C 4.898438 -6.546875 4.492188 -6.6875 4.015625 -6.6875 C 3.285156 -6.6875 2.734375 -6.375 2.359375 -5.75 C 1.984375 -5.132812 1.796875 -4.351562 1.796875 -3.40625 C 1.796875 -2.832031 1.878906 -2.304688 2.046875 -1.828125 C 2.210938 -1.359375 2.457031 -0.976562 2.78125 -0.6875 C 3.113281 -0.40625 3.523438 -0.265625 4.015625 -0.265625 Z M 4.03125 -7.609375 C 4.007812 -7.597656 3.976562 -7.59375 3.9375 -7.59375 C 3.863281 -7.59375 3.800781 -7.617188 3.75 -7.671875 C 3.695312 -7.722656 3.671875 -7.785156 3.671875 -7.859375 C 3.671875 -7.910156 3.6875 -7.953125 3.71875 -7.984375 C 3.757812 -8.023438 3.90625 -8.171875 4.15625 -8.421875 C 4.40625 -8.679688 4.648438 -8.898438 4.890625 -9.078125 C 5.003906 -9.160156 5.097656 -9.222656 5.171875 -9.265625 C 5.253906 -9.316406 5.332031 -9.34375 5.40625 -9.34375 C 5.519531 -9.34375 5.617188 -9.289062 5.703125 -9.1875 C 5.773438 -9.101562 5.8125 -9.019531 5.8125 -8.9375 C 5.8125 -8.78125 5.675781 -8.609375 5.40625 -8.421875 C 4.84375 -8.066406 4.382812 -7.796875 4.03125 -7.609375 Z M 4.03125 -7.609375 "/></g></g></g><g fill="#000000" fill-opacity="1"><g transform="translate(181.610735, 228.608452)"><g><path d="M 3.953125 0.21875 C 3.304688 0.21875 2.722656 0.0859375 2.203125 -0.171875 C 1.691406 -0.441406 1.285156 -0.847656 0.984375 -1.390625 C 0.679688 -1.941406 0.53125 -2.617188 0.53125 -3.421875 C 0.53125 -4.160156 0.691406 -4.8125 1.015625 -5.375 C 1.347656 -5.9375 1.800781 -6.375 2.375 -6.6875 C 2.957031 -7 3.625 -7.15625 4.375 -7.15625 C 4.738281 -7.15625 5.097656 -7.097656 5.453125 -6.984375 C 5.816406 -6.878906 6.113281 -6.707031 6.34375 -6.46875 C 6.582031 -6.238281 6.703125 -5.953125 6.703125 -5.609375 C 6.703125 -5.285156 6.609375 -5.003906 6.421875 -4.765625 C 6.234375 -4.535156 5.984375 -4.421875 5.671875 -4.421875 C 5.515625 -4.421875 5.363281 -4.457031 5.21875 -4.53125 C 5.070312 -4.601562 5 -4.695312 5 -4.8125 C 5 -4.820312 5.046875 -4.863281 5.140625 -4.9375 C 5.242188 -5.007812 5.335938 -5.109375 5.421875 -5.234375 C 5.503906 -5.359375 5.546875 -5.507812 5.546875 -5.6875 C 5.546875 -6 5.421875 -6.25 5.171875 -6.4375 C 4.929688 -6.625 4.625 -6.71875 4.25 -6.71875 C 3.789062 -6.71875 3.378906 -6.59375 3.015625 -6.34375 C 2.648438 -6.09375 2.359375 -5.722656 2.140625 -5.234375 C 1.929688 -4.742188 1.828125 -4.160156 1.828125 -3.484375 C 1.828125 -2.835938 1.929688 -2.273438 2.140625 -1.796875 C 2.347656 -1.316406 2.640625 -0.945312 3.015625 -0.6875 C 3.398438 -0.4375 3.835938 -0.3125 4.328125 -0.3125 C 4.566406 -0.3125 4.773438 -0.320312 4.953125 -0.34375 C 5.128906 -0.375 5.316406 -0.425781 5.515625 -0.5 L 5.515625 -1.609375 C 5.515625 -1.867188 5.503906 -2.050781 5.484375 -2.15625 C 5.472656 -2.257812 5.414062 -2.335938 5.3125 -2.390625 C 5.21875 -2.441406 5.050781 -2.46875 4.8125 -2.46875 C 4.738281 -2.46875 4.679688 -2.476562 4.640625 -2.5 C 4.609375 -2.53125 4.585938 -2.59375 4.578125 -2.6875 C 4.578125 -2.757812 4.597656 -2.816406 4.640625 -2.859375 C 4.679688 -2.910156 4.738281 -2.9375 4.8125 -2.9375 C 5.269531 -2.914062 5.671875 -2.90625 6.015625 -2.90625 C 6.347656 -2.90625 6.742188 -2.914062 7.203125 -2.9375 C 7.265625 -2.9375 7.3125 -2.910156 7.34375 -2.859375 C 7.382812 -2.816406 7.40625 -2.757812 7.40625 -2.6875 C 7.40625 -2.59375 7.382812 -2.53125 7.34375 -2.5 C 7.3125 -2.476562 7.253906 -2.46875 7.171875 -2.46875 C 6.953125 -2.46875 6.796875 -2.4375 6.703125 -2.375 C 6.609375 -2.3125 6.546875 -2.226562 6.515625 -2.125 C 6.492188 -2.019531 6.484375 -1.847656 6.484375 -1.609375 L 6.484375 -0.3125 C 6.054688 -0.113281 5.660156 0.0195312 5.296875 0.09375 C 4.941406 0.175781 4.492188 0.21875 3.953125 0.21875 Z M 3.953125 0.21875 "/></g></g></g><g fill="#000000" fill-opacity="1"><g transform="translate(189.217359, 228.608452)"><g><path d="M 0.65625 0.03125 C 0.59375 0.03125 0.546875 0.0078125 0.515625 -0.03125 C 0.484375 -0.0820312 0.46875 -0.140625 0.46875 -0.203125 C 0.46875 -0.316406 0.488281 -0.382812 0.53125 -0.40625 C 0.570312 -0.425781 0.640625 -0.4375 0.734375 -0.4375 C 0.953125 -0.4375 1.109375 -0.472656 1.203125 -0.546875 C 1.304688 -0.628906 1.375 -0.722656 1.40625 -0.828125 C 1.4375 -0.941406 1.457031 -1.09375 1.46875 -1.28125 L 1.46875 -5.65625 C 1.457031 -5.84375 1.4375 -5.988281 1.40625 -6.09375 C 1.375 -6.207031 1.304688 -6.300781 1.203125 -6.375 C 1.109375 -6.457031 0.953125 -6.5 0.734375 -6.5 L 0.671875 -6.5 C 0.609375 -6.5 0.554688 -6.507812 0.515625 -6.53125 C 0.484375 -6.5625 0.46875 -6.628906 0.46875 -6.734375 C 0.46875 -6.796875 0.484375 -6.847656 0.515625 -6.890625 C 0.546875 -6.941406 0.59375 -6.96875 0.65625 -6.96875 C 1.132812 -6.945312 1.570312 -6.9375 1.96875 -6.9375 C 2.40625 -6.9375 2.863281 -6.945312 3.34375 -6.96875 C 3.40625 -6.96875 3.453125 -6.941406 3.484375 -6.890625 C 3.523438 -6.847656 3.546875 -6.796875 3.546875 -6.734375 C 3.535156 -6.617188 3.507812 -6.550781 3.46875 -6.53125 C 3.425781 -6.507812 3.351562 -6.5 3.25 -6.5 C 3.039062 -6.5 2.882812 -6.457031 2.78125 -6.375 C 2.675781 -6.300781 2.609375 -6.207031 2.578125 -6.09375 C 2.554688 -5.976562 2.546875 -5.832031 2.546875 -5.65625 L 2.546875 -1.28125 C 2.546875 -1.101562 2.554688 -0.957031 2.578125 -0.84375 C 2.609375 -0.726562 2.675781 -0.628906 2.78125 -0.546875 C 2.882812 -0.472656 3.039062 -0.4375 3.25 -0.4375 L 3.328125 -0.4375 C 3.398438 -0.4375 3.453125 -0.421875 3.484375 -0.390625 C 3.515625 -0.367188 3.535156 -0.304688 3.546875 -0.203125 C 3.546875 -0.140625 3.523438 -0.0820312 3.484375 -0.03125 C 3.453125 0.0078125 3.40625 0.03125 3.34375 0.03125 C 2.875 0.0078125 2.421875 0 1.984375 0 C 1.578125 0 1.132812 0.0078125 0.65625 0.03125 Z M 0.65625 0.03125 "/></g></g></g><g fill="#000000" fill-opacity="1"><g transform="translate(193.218533, 228.608452)"><g><path d="M 3.9375 0.21875 C 3.3125 0.21875 2.738281 0.0703125 2.21875 -0.21875 C 1.707031 -0.519531 1.296875 -0.945312 0.984375 -1.5 C 0.679688 -2.050781 0.53125 -2.691406 0.53125 -3.421875 C 0.53125 -4.160156 0.675781 -4.8125 0.96875 -5.375 C 1.269531 -5.9375 1.691406 -6.375 2.234375 -6.6875 C 2.773438 -7 3.410156 -7.15625 4.140625 -7.15625 C 4.765625 -7.15625 5.320312 -7.03125 5.8125 -6.78125 C 6.3125 -6.53125 6.5625 -6.140625 6.5625 -5.609375 C 6.5625 -5.273438 6.457031 -4.992188 6.25 -4.765625 C 6.050781 -4.535156 5.78125 -4.421875 5.4375 -4.421875 C 5.300781 -4.421875 5.1875 -4.441406 5.09375 -4.484375 C 5.007812 -4.535156 4.941406 -4.59375 4.890625 -4.65625 C 4.847656 -4.726562 4.832031 -4.78125 4.84375 -4.8125 C 4.84375 -4.832031 4.890625 -4.875 4.984375 -4.9375 C 5.085938 -5 5.179688 -5.085938 5.265625 -5.203125 C 5.347656 -5.328125 5.390625 -5.472656 5.390625 -5.640625 C 5.390625 -5.972656 5.273438 -6.234375 5.046875 -6.421875 C 4.828125 -6.617188 4.519531 -6.71875 4.125 -6.71875 C 3.675781 -6.71875 3.273438 -6.59375 2.921875 -6.34375 C 2.578125 -6.09375 2.304688 -5.722656 2.109375 -5.234375 C 1.921875 -4.742188 1.828125 -4.160156 1.828125 -3.484375 C 1.828125 -2.898438 1.929688 -2.367188 2.140625 -1.890625 C 2.347656 -1.410156 2.640625 -1.023438 3.015625 -0.734375 C 3.398438 -0.453125 3.835938 -0.3125 4.328125 -0.3125 C 4.722656 -0.3125 5.0625 -0.394531 5.34375 -0.5625 C 5.632812 -0.726562 5.890625 -0.992188 6.109375 -1.359375 C 6.148438 -1.429688 6.203125 -1.46875 6.265625 -1.46875 C 6.328125 -1.46875 6.394531 -1.441406 6.46875 -1.390625 C 6.582031 -1.316406 6.640625 -1.238281 6.640625 -1.15625 C 6.640625 -1.113281 6.625 -1.078125 6.59375 -1.046875 C 6.320312 -0.691406 6.0625 -0.425781 5.8125 -0.25 C 5.5625 -0.0703125 5.296875 0.046875 5.015625 0.109375 C 4.734375 0.179688 4.375 0.21875 3.9375 0.21875 Z M 3.9375 0.21875 "/></g></g></g><g fill="#000000" fill-opacity="1"><g transform="translate(200.242562, 228.608452)"><g><path d="M 0.0625 0.03125 C 0 0.03125 -0.046875 0.0078125 -0.078125 -0.03125 C -0.109375 -0.0820312 -0.125 -0.140625 -0.125 -0.203125 C -0.125 -0.316406 -0.101562 -0.382812 -0.0625 -0.40625 C -0.03125 -0.425781 0.0078125 -0.4375 0.0625 -0.4375 C 0.113281 -0.4375 0.148438 -0.4375 0.171875 -0.4375 C 0.390625 -0.4375 0.546875 -0.492188 0.640625 -0.609375 C 0.742188 -0.722656 0.828125 -0.847656 0.890625 -0.984375 C 0.953125 -1.128906 0.992188 -1.226562 1.015625 -1.28125 L 2.953125 -5.84375 C 2.992188 -5.945312 3.015625 -6.035156 3.015625 -6.109375 C 3.015625 -6.234375 2.960938 -6.328125 2.859375 -6.390625 C 2.753906 -6.453125 2.613281 -6.5 2.4375 -6.53125 C 2.3125 -6.550781 2.234375 -6.570312 2.203125 -6.59375 C 2.171875 -6.625 2.15625 -6.6875 2.15625 -6.78125 C 2.15625 -6.875 2.175781 -6.929688 2.21875 -6.953125 C 2.269531 -6.984375 2.347656 -7 2.453125 -7 C 2.816406 -7 3.109375 -6.972656 3.328125 -6.921875 C 3.546875 -6.867188 3.734375 -6.757812 3.890625 -6.59375 C 4.054688 -6.425781 4.207031 -6.175781 4.34375 -5.84375 L 6.1875 -1.28125 C 6.300781 -1.007812 6.410156 -0.800781 6.515625 -0.65625 C 6.617188 -0.519531 6.769531 -0.445312 6.96875 -0.4375 L 7.046875 -0.4375 C 7.117188 -0.4375 7.164062 -0.421875 7.1875 -0.390625 C 7.21875 -0.367188 7.238281 -0.304688 7.25 -0.203125 C 7.25 -0.140625 7.234375 -0.0820312 7.203125 -0.03125 C 7.171875 0.0078125 7.117188 0.03125 7.046875 0.03125 C 6.578125 0.0078125 6.175781 0 5.84375 0 C 5.40625 0 4.953125 0.0078125 4.484375 0.03125 C 4.410156 0.03125 4.359375 0.0078125 4.328125 -0.03125 C 4.296875 -0.0820312 4.28125 -0.140625 4.28125 -0.203125 C 4.289062 -0.304688 4.304688 -0.367188 4.328125 -0.390625 C 4.359375 -0.421875 4.410156 -0.4375 4.484375 -0.4375 C 4.734375 -0.4375 4.910156 -0.457031 5.015625 -0.5 C 5.117188 -0.550781 5.171875 -0.640625 5.171875 -0.765625 C 5.171875 -0.859375 5.125 -1.03125 5.03125 -1.28125 L 4.65625 -2.203125 L 1.953125 -2.203125 C 1.765625 -1.742188 1.65625 -1.476562 1.625 -1.40625 C 1.601562 -1.332031 1.59375 -1.289062 1.59375 -1.28125 C 1.507812 -1.007812 1.46875 -0.832031 1.46875 -0.75 C 1.46875 -0.625 1.519531 -0.539062 1.625 -0.5 C 1.738281 -0.457031 1.945312 -0.4375 2.25 -0.4375 L 2.328125 -0.4375 C 2.398438 -0.4375 2.445312 -0.421875 2.46875 -0.390625 C 2.5 -0.367188 2.519531 -0.304688 2.53125 -0.203125 C 2.53125 -0.140625 2.515625 -0.0820312 2.484375 -0.03125 C 2.453125 0.0078125 2.398438 0.03125 2.328125 0.03125 C 1.859375 0.0078125 1.460938 0 1.140625 0 C 0.898438 0 0.539062 0.0078125 0.0625 0.03125 Z M 2.15625 -2.671875 L 4.46875 -2.671875 L 3.359375 -5.5 L 3.328125 -5.5 Z M 2.15625 -2.671875 "/></g></g></g></svg>