<svg xmlns="http://www.w3.org/2000/svg" xmlns:xlink="http://www.w3.org/1999/xlink" width="92" zoomAndPan="magnify" viewBox="0 0 69 68.999997" height="92" preserveAspectRatio="xMidYMid meet" version="1.0"><defs><clipPath id="id1"><path d="M 60 43 L 65.476562 43 L 65.476562 48.476562 L 60 48.476562 Z M 60 43 " clip-rule="nonzero"/></clipPath><clipPath id="id2"><path d="M 50.476562 33.476562 L 62 33.476562 L 62 45 L 50.476562 45 Z M 50.476562 33.476562 " clip-rule="nonzero"/></clipPath><clipPath id="id3"><path d="M 6.898438 8 L 61.648438 8 L 61.648438 60 L 6.898438 60 Z M 6.898438 8 " clip-rule="nonzero"/></clipPath></defs><path fill="#000000" d="M 59.203125 43.136719 L 60.136719 42.203125 L 62.035156 44.101562 L 61.097656 45.035156 Z M 59.203125 43.136719 " fill-opacity="1" fill-rule="nonzero"/><g clip-path="url(#id1)"><path fill="#000000" d="M 65.03125 46.035156 C 65.441406 46.449219 65.441406 47.121094 65.03125 47.53125 L 64.53125 48.03125 C 64.117188 48.445312 63.449219 48.445312 63.035156 48.03125 L 60.363281 45.359375 C 59.949219 44.945312 59.949219 44.273438 60.363281 43.863281 L 60.863281 43.363281 C 61.273438 42.949219 61.945312 42.949219 62.359375 43.363281 Z M 65.03125 46.035156 " fill-opacity="1" fill-rule="nonzero"/></g><g clip-path="url(#id2)"><path fill="#000000" d="M 56.152344 33.46875 C 53.011719 33.46875 50.46875 36.015625 50.46875 39.152344 C 50.46875 42.292969 53.011719 44.835938 56.152344 44.835938 C 59.292969 44.835938 61.835938 42.292969 61.835938 39.152344 C 61.835938 36.015625 59.292969 33.46875 56.152344 33.46875 Z M 56.152344 43.785156 C 53.59375 43.785156 51.519531 41.710938 51.519531 39.152344 C 51.519531 36.59375 53.59375 34.523438 56.152344 34.523438 C 58.710938 34.523438 60.785156 36.59375 60.785156 39.152344 C 60.785156 41.710938 58.710938 43.785156 56.152344 43.785156 Z M 56.152344 43.785156 " fill-opacity="1" fill-rule="nonzero"/></g><path fill="#000000" d="M 57.316406 41.964844 C 55.050781 41.964844 53.210938 40.128906 53.210938 37.859375 C 53.210938 37.800781 53.21875 37.742188 53.222656 37.679688 C 52.921875 38.164062 52.746094 38.734375 52.746094 39.34375 C 52.746094 41.097656 54.167969 42.519531 55.921875 42.519531 C 56.597656 42.519531 57.222656 42.304688 57.738281 41.945312 C 57.601562 41.960938 57.460938 41.964844 57.316406 41.964844 Z M 57.316406 41.964844 " fill-opacity="1" fill-rule="nonzero"/><g clip-path="url(#id3)"><path fill="#000000" d="M 34.273438 40.878906 C 43.082031 40.878906 50.285156 33.679688 50.285156 24.8125 C 50.285156 15.886719 43.082031 8.683594 34.273438 8.683594 C 25.46875 8.683594 18.265625 15.886719 18.265625 24.753906 C 18.265625 33.679688 25.46875 40.878906 34.273438 40.878906 Z M 34.273438 13.445312 C 40.464844 13.445312 45.523438 18.503906 45.523438 24.753906 C 45.523438 31 40.464844 36.058594 34.273438 36.058594 C 28.085938 36.058594 23.027344 31 23.027344 24.753906 C 23.027344 18.503906 28.085938 13.445312 34.273438 13.445312 Z M 41.714844 42.429688 C 40.941406 42.191406 40.046875 42.367188 39.453125 42.902344 L 34.273438 47.308594 L 29.097656 42.902344 C 28.441406 42.367188 27.609375 42.191406 26.835938 42.429688 C 23.503906 43.5 6.898438 49.210938 6.898438 57.484375 C 6.898438 58.792969 7.972656 59.863281 9.28125 59.863281 L 59.269531 59.863281 C 60.578125 59.863281 61.648438 58.792969 61.648438 57.484375 C 61.648438 49.210938 45.046875 43.5 41.714844 42.429688 Z M 12.910156 55.105469 C 15.527344 52.308594 21.835938 49.210938 27.074219 47.425781 L 32.726562 52.246094 C 33.621094 53.019531 34.929688 53.019531 35.824219 52.246094 L 41.476562 47.425781 C 46.710938 49.273438 53.019531 52.367188 55.640625 55.105469 Z M 12.910156 55.105469 " fill-opacity="1" fill-rule="nonzero"/></g></svg>