<svg xmlns="http://www.w3.org/2000/svg" xmlns:xlink="http://www.w3.org/1999/xlink" width="92" zoomAndPan="magnify" viewBox="0 0 69 68.999997" height="92" preserveAspectRatio="xMidYMid meet" version="1.0"><path fill="#000000" d="M 26.550781 40.726562 C 35.324219 40.726562 42.449219 33.601562 42.449219 24.898438 C 42.449219 16.125 35.324219 9.074219 26.550781 9.074219 C 17.773438 9.074219 10.648438 16.199219 10.648438 24.898438 C 10.726562 33.601562 17.851562 40.726562 26.550781 40.726562 Z M 26.550781 15 C 32.023438 15 36.449219 19.425781 36.449219 24.824219 C 36.449219 30.226562 32.023438 34.648438 26.550781 34.648438 C 21.074219 34.648438 16.648438 30.226562 16.648438 24.824219 C 16.726562 19.425781 21.148438 15 26.550781 15 Z M 33.75 42.148438 C 32.925781 41.925781 32.023438 42 31.273438 42.449219 L 26.550781 45.300781 L 21.824219 42.449219 C 21.074219 42 20.175781 41.925781 19.351562 42.148438 C 14.773438 43.648438 0 48.976562 0 57 C 0 58.648438 1.351562 60 3 60 L 50.101562 60 C 51.75 60 53.101562 58.648438 53.101562 57 C 53.101562 48.976562 38.324219 43.648438 33.75 42.148438 Z M 8.398438 54 C 10.949219 52.050781 15.226562 49.949219 19.875 48.300781 L 24.976562 51.375 C 25.949219 51.976562 27.148438 51.976562 28.050781 51.375 L 33.148438 48.300781 C 37.800781 49.875 42.074219 52.050781 44.625 54 Z M 68.25 51.75 C 68.25 53.023438 67.273438 54 66 54 L 55.949219 54 C 54.675781 54 53.699219 53.023438 53.699219 51.75 C 53.699219 50.476562 54.675781 49.5 55.949219 49.5 L 62.625 49.5 C 61.5 48 59.699219 46.800781 57.449219 45.601562 C 56.324219 45 55.949219 43.648438 56.550781 42.601562 C 57.148438 41.476562 58.5 41.101562 59.625 41.699219 C 62.851562 43.425781 68.25 47.101562 68.25 51.75 Z M 55.648438 31.949219 C 55.648438 28.648438 52.949219 26.023438 49.726562 26.023438 C 48.898438 26.023438 48.148438 26.175781 47.398438 26.476562 C 46.273438 26.925781 44.925781 26.398438 44.476562 25.273438 C 44.023438 24.148438 44.550781 22.800781 45.675781 22.351562 C 46.949219 21.824219 48.300781 21.523438 49.726562 21.523438 C 55.5 21.523438 60.148438 26.175781 60.148438 31.949219 C 60.148438 37.726562 55.425781 42.375 49.726562 42.375 C 46.726562 42.375 43.875 41.101562 41.925781 38.851562 C 41.101562 37.949219 41.175781 36.523438 42.148438 35.699219 C 43.050781 34.875 44.476562 34.949219 45.300781 35.925781 C 46.425781 37.199219 48.074219 37.949219 49.800781 37.949219 C 52.949219 37.875 55.648438 35.175781 55.648438 31.949219 Z M 55.648438 31.949219 " fill-opacity="1" fill-rule="nonzero"/></svg>