<?xml version="1.0" encoding="UTF-8"?>
<svg xmlns="http://www.w3.org/2000/svg" xmlns:xlink="http://www.w3.org/1999/xlink" width="24px" height="24px" viewBox="0 0 24 24" version="1.1">
<g id="surface1">
<path style=" stroke:none;fill-rule:nonzero;fill:rgb(0%,0%,0%);fill-opacity:1;" d="M 19.828125 0.519531 L 4.171875 0.519531 C 3.597656 0.519531 3.128906 0.988281 3.128906 1.566406 L 3.128906 22.433594 C 3.128906 23.011719 3.597656 23.480469 4.171875 23.480469 L 19.828125 23.480469 C 20.402344 23.480469 20.871094 23.011719 20.871094 22.433594 L 20.871094 1.566406 C 20.871094 0.988281 20.402344 0.519531 19.828125 0.519531 Z M 18.78125 21.390625 L 5.21875 21.390625 L 5.21875 2.609375 L 18.78125 2.609375 Z M 7.699219 14.480469 C 7.699219 13.984375 8.113281 13.566406 8.609375 13.566406 L 11.6875 13.566406 C 12.183594 13.566406 12.597656 13.984375 12.597656 14.480469 C 12.597656 14.972656 12.183594 15.390625 11.6875 15.390625 L 8.609375 15.390625 C 8.089844 15.390625 7.699219 14.972656 7.699219 14.480469 Z M 7.828125 10.300781 C 7.828125 9.808594 8.246094 9.390625 8.738281 9.390625 L 14.949219 9.390625 C 15.441406 9.390625 15.859375 9.808594 15.859375 10.300781 C 15.859375 10.800781 15.46875 11.21875 14.949219 11.21875 L 8.738281 11.21875 C 8.246094 11.21875 7.828125 10.800781 7.828125 10.300781 Z M 7.828125 6.390625 C 7.828125 5.894531 8.246094 5.480469 8.738281 5.480469 L 14.949219 5.480469 C 15.441406 5.480469 15.859375 5.894531 15.859375 6.390625 C 15.859375 6.886719 15.46875 7.300781 14.949219 7.300781 L 8.738281 7.300781 C 8.246094 7.300781 7.828125 6.886719 7.828125 6.390625 Z M 15.574219 13.90625 C 15.730469 14.0625 15.832031 14.296875 15.832031 14.558594 C 15.832031 14.792969 15.730469 15.027344 15.574219 15.207031 C 15.417969 15.390625 15.15625 15.46875 14.921875 15.46875 C 14.6875 15.46875 14.453125 15.363281 14.269531 15.207031 C 14.089844 15.050781 14.011719 14.816406 14.011719 14.558594 C 14.011719 14.324219 14.113281 14.089844 14.269531 13.90625 C 14.609375 13.566406 15.234375 13.566406 15.574219 13.90625 Z M 15.574219 13.90625 "/>
</g>
</svg>
