<?xml version="1.0" encoding="UTF-8"?>
<svg xmlns="http://www.w3.org/2000/svg" xmlns:xlink="http://www.w3.org/1999/xlink" width="24px" height="24px" viewBox="0 0 24 24" version="1.1">
<g id="surface1">
<path style=" stroke:none;fill-rule:nonzero;fill:rgb(0%,0%,0%);fill-opacity:1;" d="M 19.488281 6.261719 L 4.511719 6.261719 C 3.9375 6.261719 3.46875 6.730469 3.46875 7.304688 L 3.3125 20.609375 C 3.3125 20.894531 3.417969 21.15625 3.625 21.363281 C 3.835938 21.574219 4.09375 21.679688 4.355469 21.679688 L 19.589844 21.679688 C 19.878906 21.679688 20.140625 21.574219 20.320312 21.363281 C 20.53125 21.15625 20.636719 20.894531 20.636719 20.636719 L 20.53125 7.332031 C 20.53125 6.730469 20.0625 6.261719 19.488281 6.261719 Z M 12 19.566406 L 5.398438 19.566406 L 5.53125 8.347656 L 18.445312 8.347656 L 18.523438 19.566406 Z M 15.339844 11.21875 C 15.339844 11.792969 14.871094 12.261719 14.296875 12.261719 L 9.703125 12.261719 C 9.128906 12.261719 8.660156 11.792969 8.660156 11.21875 C 8.660156 10.644531 9.128906 10.175781 9.703125 10.175781 L 14.269531 10.175781 C 14.871094 10.175781 15.339844 10.644531 15.339844 11.21875 Z M 23.164062 7.015625 C 23.085938 7.042969 23.007812 7.042969 22.957031 7.042969 C 22.460938 7.042969 22.015625 6.703125 21.9375 6.207031 L 21.601562 4.433594 L 2.398438 4.433594 L 2.0625 6.207031 C 1.957031 6.78125 1.410156 7.148438 0.835938 7.042969 C 0.261719 6.9375 -0.105469 6.390625 0 5.816406 L 0.496094 3.207031 C 0.625 2.714844 1.042969 2.347656 1.539062 2.347656 L 22.433594 2.347656 C 22.929688 2.347656 23.375 2.714844 23.453125 3.183594 L 23.949219 5.792969 C 24.078125 6.363281 23.714844 6.914062 23.164062 7.015625 Z M 23.164062 7.015625 "/>
</g>
</svg>
