<svg xmlns="http://www.w3.org/2000/svg" xmlns:xlink="http://www.w3.org/1999/xlink" width="92" zoomAndPan="magnify" viewBox="0 0 69 68.999997" height="92" preserveAspectRatio="xMidYMid meet" version="1.0"><defs><clipPath id="id1"><path d="M 6.898438 8 L 61.648438 8 L 61.648438 60 L 6.898438 60 Z M 6.898438 8 " clip-rule="nonzero"/></clipPath><clipPath id="id2"><path d="M 48.996094 31.246094 L 65.496094 31.246094 L 65.496094 47.746094 L 48.996094 47.746094 Z M 48.996094 31.246094 " clip-rule="nonzero"/></clipPath></defs><g clip-path="url(#id1)"><path fill="#000000" d="M 34.273438 40.878906 C 43.082031 40.878906 50.285156 33.679688 50.285156 24.8125 C 50.285156 15.886719 43.082031 8.683594 34.273438 8.683594 C 25.46875 8.683594 18.265625 15.886719 18.265625 24.753906 C 18.265625 33.679688 25.46875 40.878906 34.273438 40.878906 Z M 34.273438 13.445312 C 40.464844 13.445312 45.523438 18.503906 45.523438 24.753906 C 45.523438 31 40.464844 36.058594 34.273438 36.058594 C 28.085938 36.058594 23.027344 31 23.027344 24.753906 C 23.027344 18.503906 28.085938 13.445312 34.273438 13.445312 Z M 41.714844 42.429688 C 40.941406 42.191406 40.046875 42.367188 39.453125 42.902344 L 34.273438 47.308594 L 29.097656 42.902344 C 28.441406 42.367188 27.609375 42.191406 26.835938 42.429688 C 23.503906 43.5 6.898438 49.210938 6.898438 57.484375 C 6.898438 58.792969 7.972656 59.863281 9.28125 59.863281 L 59.269531 59.863281 C 60.578125 59.863281 61.648438 58.792969 61.648438 57.484375 C 61.648438 49.210938 45.046875 43.5 41.714844 42.429688 Z M 12.910156 55.105469 C 15.527344 52.308594 21.835938 49.210938 27.074219 47.425781 L 32.726562 52.246094 C 33.621094 53.019531 34.929688 53.019531 35.824219 52.246094 L 41.476562 47.425781 C 46.710938 49.273438 53.019531 52.367188 55.640625 55.105469 Z M 12.910156 55.105469 " fill-opacity="1" fill-rule="nonzero"/></g><g clip-path="url(#id2)"><path fill="#000000" d="M 57.238281 31.246094 C 57.242188 31.246094 57.246094 31.246094 57.25 31.246094 C 57.660156 31.246094 58.035156 31.414062 58.304688 31.683594 C 58.574219 31.957031 58.742188 32.332031 58.742188 32.746094 L 58.746094 32.746094 L 58.746094 37.996094 L 63.996094 37.996094 C 64.40625 37.996094 64.78125 38.164062 65.054688 38.433594 C 65.324219 38.707031 65.492188 39.078125 65.496094 39.488281 C 65.496094 39.492188 65.496094 39.496094 65.496094 39.503906 C 65.492188 39.910156 65.324219 40.285156 65.054688 40.554688 C 64.78125 40.824219 64.40625 40.992188 63.996094 40.992188 L 63.996094 40.996094 L 58.746094 40.996094 L 58.746094 46.246094 C 58.746094 46.65625 58.574219 47.03125 58.304688 47.304688 C 58.035156 47.574219 57.660156 47.742188 57.25 47.746094 C 57.246094 47.746094 57.242188 47.746094 57.238281 47.746094 C 56.828125 47.742188 56.453125 47.574219 56.183594 47.304688 C 55.914062 47.03125 55.746094 46.65625 55.746094 46.246094 L 55.746094 40.996094 L 50.496094 40.996094 C 50.082031 40.996094 49.707031 40.828125 49.433594 40.554688 C 49.164062 40.285156 48.996094 39.910156 48.996094 39.5 C 48.996094 39.496094 48.996094 39.492188 48.996094 39.488281 C 48.996094 39.078125 49.164062 38.707031 49.433594 38.433594 C 49.707031 38.164062 50.082031 37.996094 50.496094 37.996094 L 55.746094 37.996094 L 55.746094 32.746094 C 55.746094 32.332031 55.914062 31.957031 56.183594 31.683594 C 56.457031 31.414062 56.828125 31.246094 57.238281 31.246094 " fill-opacity="1" fill-rule="nonzero"/></g></svg>