<svg xmlns="http://www.w3.org/2000/svg" xmlns:xlink="http://www.w3.org/1999/xlink" width="92" zoomAndPan="magnify" viewBox="0 0 69 68.999997" height="92" preserveAspectRatio="xMidYMid meet" version="1.0"><defs><clipPath id="id1"><path d="M 59 31.121094 L 62.820312 31.121094 L 62.820312 35 L 59 35 Z M 59 31.121094 " clip-rule="nonzero"/></clipPath><clipPath id="id2"><path d="M 47.820312 33 L 60 33 L 60 46.121094 L 47.820312 46.121094 Z M 47.820312 33 " clip-rule="nonzero"/></clipPath><clipPath id="id3"><path d="M 6.898438 8 L 61.648438 8 L 61.648438 60 L 6.898438 60 Z M 6.898438 8 " clip-rule="nonzero"/></clipPath></defs><g clip-path="url(#id1)"><path fill="#000000" d="M 62.523438 32.78125 L 61.191406 31.394531 C 61.054688 31.25 60.871094 31.175781 60.691406 31.175781 C 60.511719 31.175781 60.328125 31.25 60.191406 31.390625 L 59.125 32.5 L 61.457031 34.925781 L 62.523438 33.820312 C 62.800781 33.53125 62.800781 33.066406 62.523438 32.78125 Z M 62.523438 32.78125 " fill-opacity="1" fill-rule="nonzero"/></g><path fill="#000000" d="M 52.195312 39.703125 L 54.527344 42.128906 L 60.957031 35.445312 L 58.625 33.019531 Z M 52.195312 39.703125 " fill-opacity="1" fill-rule="nonzero"/><path fill="#000000" d="M 51.691406 40.222656 L 51.191406 43.167969 L 54.027344 42.648438 Z M 51.691406 40.222656 " fill-opacity="1" fill-rule="nonzero"/><g clip-path="url(#id2)"><path fill="#000000" d="M 58.144531 44.476562 L 49.34375 44.476562 L 49.34375 35.3125 L 55.554688 35.3125 L 57.085938 33.722656 L 48.804688 33.722656 C 48.261719 33.722656 47.816406 34.183594 47.816406 34.75 L 47.816406 45.039062 C 47.816406 45.605469 48.261719 46.070312 48.804688 46.070312 L 58.683594 46.070312 C 59.226562 46.070312 59.671875 45.605469 59.671875 45.039062 L 59.671875 37.683594 L 58.144531 39.273438 Z M 58.144531 44.476562 " fill-opacity="1" fill-rule="nonzero"/></g><g clip-path="url(#id3)"><path fill="#000000" d="M 34.273438 40.878906 C 43.082031 40.878906 50.285156 33.679688 50.285156 24.8125 C 50.285156 15.886719 43.082031 8.683594 34.273438 8.683594 C 25.46875 8.683594 18.265625 15.886719 18.265625 24.753906 C 18.265625 33.679688 25.46875 40.878906 34.273438 40.878906 Z M 34.273438 13.445312 C 40.464844 13.445312 45.523438 18.503906 45.523438 24.753906 C 45.523438 31 40.464844 36.058594 34.273438 36.058594 C 28.085938 36.058594 23.027344 31 23.027344 24.753906 C 23.027344 18.503906 28.085938 13.445312 34.273438 13.445312 Z M 41.714844 42.429688 C 40.941406 42.191406 40.046875 42.367188 39.453125 42.902344 L 34.273438 47.308594 L 29.097656 42.902344 C 28.441406 42.367188 27.609375 42.191406 26.835938 42.429688 C 23.503906 43.5 6.898438 49.210938 6.898438 57.484375 C 6.898438 58.792969 7.972656 59.863281 9.28125 59.863281 L 59.269531 59.863281 C 60.578125 59.863281 61.648438 58.792969 61.648438 57.484375 C 61.648438 49.210938 45.046875 43.5 41.714844 42.429688 Z M 12.910156 55.105469 C 15.527344 52.308594 21.835938 49.210938 27.074219 47.425781 L 32.726562 52.246094 C 33.621094 53.019531 34.929688 53.019531 35.824219 52.246094 L 41.476562 47.425781 C 46.710938 49.273438 53.019531 52.367188 55.640625 55.105469 Z M 12.910156 55.105469 " fill-opacity="1" fill-rule="nonzero"/></g></svg>