<?xml version="1.0" encoding="UTF-8"?>
<svg xmlns="http://www.w3.org/2000/svg" xmlns:xlink="http://www.w3.org/1999/xlink" width="24px" height="24px" viewBox="0 0 24 24" version="1.1">
<g id="surface1">
<path style=" stroke:none;fill-rule:nonzero;fill:rgb(0%,0%,0%);fill-opacity:1;" d="M 9.234375 14.164062 C 12.285156 14.164062 14.765625 11.6875 14.765625 8.660156 C 14.765625 5.609375 12.285156 3.15625 9.234375 3.15625 C 6.183594 3.15625 3.703125 5.636719 3.703125 8.660156 C 3.730469 11.6875 6.207031 14.164062 9.234375 14.164062 Z M 9.234375 5.21875 C 11.140625 5.21875 12.679688 6.757812 12.679688 8.636719 C 12.679688 10.511719 11.140625 12.050781 9.234375 12.050781 C 7.332031 12.050781 5.792969 10.511719 5.792969 8.636719 C 5.816406 6.757812 7.355469 5.21875 9.234375 5.21875 Z M 11.738281 14.660156 C 11.453125 14.582031 11.140625 14.609375 10.878906 14.765625 L 9.234375 15.757812 L 7.589844 14.765625 C 7.332031 14.609375 7.015625 14.582031 6.730469 14.660156 C 5.140625 15.183594 0 17.035156 0 19.824219 C 0 20.398438 0.46875 20.871094 1.042969 20.871094 L 17.425781 20.871094 C 18 20.871094 18.46875 20.398438 18.46875 19.824219 C 18.46875 17.035156 13.332031 15.183594 11.738281 14.660156 Z M 2.921875 18.78125 C 3.808594 18.105469 5.296875 17.375 6.914062 16.800781 L 8.6875 17.871094 C 9.027344 18.078125 9.445312 18.078125 9.757812 17.871094 L 11.53125 16.800781 C 13.148438 17.347656 14.636719 18.105469 15.523438 18.78125 Z M 23.738281 18 C 23.738281 18.445312 23.398438 18.78125 22.957031 18.78125 L 19.460938 18.78125 C 19.015625 18.78125 18.679688 18.445312 18.679688 18 C 18.679688 17.554688 19.015625 17.21875 19.460938 17.21875 L 21.78125 17.21875 C 21.390625 16.695312 20.765625 16.277344 19.984375 15.859375 C 19.589844 15.652344 19.460938 15.183594 19.667969 14.816406 C 19.878906 14.425781 20.347656 14.296875 20.738281 14.503906 C 21.859375 15.105469 23.738281 16.382812 23.738281 18 Z M 19.355469 11.113281 C 19.355469 9.964844 18.417969 9.050781 17.296875 9.050781 C 17.007812 9.050781 16.746094 9.105469 16.488281 9.207031 C 16.09375 9.363281 15.625 9.183594 15.46875 8.792969 C 15.3125 8.398438 15.496094 7.929688 15.886719 7.773438 C 16.332031 7.589844 16.800781 7.488281 17.296875 7.488281 C 19.304688 7.488281 20.921875 9.105469 20.921875 11.113281 C 20.921875 13.121094 19.277344 14.738281 17.296875 14.738281 C 16.253906 14.738281 15.261719 14.296875 14.582031 13.511719 C 14.296875 13.199219 14.320312 12.703125 14.660156 12.417969 C 14.972656 12.128906 15.46875 12.15625 15.757812 12.496094 C 16.148438 12.9375 16.722656 13.199219 17.320312 13.199219 C 18.417969 13.175781 19.355469 12.234375 19.355469 11.113281 Z M 19.355469 11.113281 "/>
</g>
</svg>
