<?xml version="1.0" encoding="UTF-8"?>
<svg xmlns="http://www.w3.org/2000/svg" xmlns:xlink="http://www.w3.org/1999/xlink" width="24px" height="24px" viewBox="0 0 24 24" version="1.1">
<g id="surface1">
<path style=" stroke:none;fill-rule:nonzero;fill:rgb(0%,0%,0%);fill-opacity:1;" d="M 20.871094 6 L 11.871094 6 L 10.722656 4.148438 C 10.539062 3.835938 10.199219 3.652344 9.835938 3.652344 L 3.128906 3.652344 C 2.554688 3.652344 2.085938 4.121094 2.085938 4.695312 L 2.085938 19.304688 C 2.085938 19.878906 2.554688 20.347656 3.128906 20.347656 L 20.871094 20.347656 C 21.445312 20.347656 21.914062 19.878906 21.914062 19.304688 L 21.914062 7.070312 C 21.914062 6.496094 21.445312 6 20.871094 6 Z M 19.824219 18.261719 L 4.175781 18.261719 L 4.175781 5.738281 L 9.234375 5.738281 L 10.382812 7.589844 C 10.566406 7.90625 10.90625 8.085938 11.269531 8.085938 L 19.824219 8.085938 Z M 19.824219 18.261719 "/>
</g>
</svg>
