<svg xmlns="http://www.w3.org/2000/svg" xmlns:xlink="http://www.w3.org/1999/xlink" width="92" zoomAndPan="magnify" viewBox="0 0 69 68.999997" height="92" preserveAspectRatio="xMidYMid meet" version="1.0"><defs><clipPath id="id1"><path d="M 51.515625 32.820312 L 65.015625 32.820312 L 65.015625 37 L 51.515625 37 Z M 51.515625 32.820312 " clip-rule="nonzero"/></clipPath><clipPath id="id2"><path d="M 52 37 L 65 37 L 65 47.820312 L 52 47.820312 Z M 52 37 " clip-rule="nonzero"/></clipPath><clipPath id="id3"><path d="M 6.898438 8 L 61.648438 8 L 61.648438 60 L 6.898438 60 Z M 6.898438 8 " clip-rule="nonzero"/></clipPath></defs><g clip-path="url(#id1)"><path fill="#000000" d="M 64.53125 34.660156 L 61.15625 34.660156 L 61.15625 33.289062 C 61.15625 33.03125 60.9375 32.820312 60.675781 32.820312 L 55.851562 32.820312 C 55.589844 32.820312 55.371094 33.03125 55.371094 33.289062 L 55.371094 34.660156 L 51.996094 34.660156 C 51.730469 34.660156 51.515625 34.871094 51.515625 35.128906 L 51.515625 36.066406 C 51.515625 36.324219 51.730469 36.535156 51.996094 36.535156 L 64.53125 36.535156 C 64.796875 36.535156 65.011719 36.324219 65.011719 36.066406 L 65.011719 35.128906 C 65.011719 34.871094 64.796875 34.660156 64.53125 34.660156 Z M 64.53125 34.660156 " fill-opacity="1" fill-rule="nonzero"/></g><g clip-path="url(#id2)"><path fill="#000000" d="M 53.636719 47.410156 C 53.660156 47.644531 53.863281 47.820312 54.117188 47.820312 L 62.421875 47.820312 C 62.664062 47.820312 62.867188 47.644531 62.902344 47.410156 L 64.0625 37.519531 L 52.480469 37.519531 Z M 60.191406 45.886719 L 61.035156 39.335938 C 61.070312 39.078125 61.3125 38.902344 61.578125 38.925781 C 61.84375 38.960938 62.023438 39.195312 62 39.453125 L 61.15625 46.003906 C 61.121094 46.238281 60.914062 46.414062 60.675781 46.414062 C 60.648438 46.414062 60.636719 46.414062 60.613281 46.414062 C 60.347656 46.378906 60.167969 46.144531 60.191406 45.886719 Z M 57.78125 39.394531 C 57.78125 39.136719 58 38.925781 58.265625 38.925781 C 58.527344 38.925781 58.746094 39.136719 58.746094 39.394531 L 58.746094 45.945312 C 58.746094 46.203125 58.527344 46.414062 58.265625 46.414062 C 58 46.414062 57.78125 46.203125 57.78125 45.945312 Z M 54.949219 38.925781 C 55.214844 38.890625 55.457031 39.078125 55.492188 39.335938 L 56.335938 45.886719 C 56.371094 46.144531 56.179688 46.378906 55.914062 46.414062 C 55.890625 46.414062 55.878906 46.414062 55.851562 46.414062 C 55.613281 46.414062 55.40625 46.238281 55.371094 46.003906 L 54.527344 39.453125 C 54.503906 39.195312 54.683594 38.960938 54.949219 38.925781 Z M 54.949219 38.925781 " fill-opacity="1" fill-rule="nonzero"/></g><g clip-path="url(#id3)"><path fill="#000000" d="M 34.273438 40.878906 C 43.082031 40.878906 50.285156 33.679688 50.285156 24.8125 C 50.285156 15.886719 43.082031 8.683594 34.273438 8.683594 C 25.46875 8.683594 18.265625 15.886719 18.265625 24.753906 C 18.265625 33.679688 25.46875 40.878906 34.273438 40.878906 Z M 34.273438 13.445312 C 40.464844 13.445312 45.523438 18.503906 45.523438 24.753906 C 45.523438 31 40.464844 36.058594 34.273438 36.058594 C 28.085938 36.058594 23.027344 31 23.027344 24.753906 C 23.027344 18.503906 28.085938 13.445312 34.273438 13.445312 Z M 41.714844 42.429688 C 40.941406 42.191406 40.046875 42.367188 39.453125 42.902344 L 34.273438 47.308594 L 29.097656 42.902344 C 28.441406 42.367188 27.609375 42.191406 26.835938 42.429688 C 23.503906 43.5 6.898438 49.210938 6.898438 57.484375 C 6.898438 58.792969 7.972656 59.863281 9.28125 59.863281 L 59.269531 59.863281 C 60.578125 59.863281 61.648438 58.792969 61.648438 57.484375 C 61.648438 49.210938 45.046875 43.5 41.714844 42.429688 Z M 12.910156 55.105469 C 15.527344 52.308594 21.835938 49.210938 27.074219 47.425781 L 32.726562 52.246094 C 33.621094 53.019531 34.929688 53.019531 35.824219 52.246094 L 41.476562 47.425781 C 46.710938 49.273438 53.019531 52.367188 55.640625 55.105469 Z M 12.910156 55.105469 " fill-opacity="1" fill-rule="nonzero"/></g></svg>