<?xml version="1.0" encoding="UTF-8"?>
<svg xmlns="http://www.w3.org/2000/svg" xmlns:xlink="http://www.w3.org/1999/xlink" width="24px" height="24px" viewBox="0 0 24 24" version="1.1">
<g id="surface1">
<path style=" stroke:none;fill-rule:nonzero;fill:rgb(0%,0%,0%);fill-opacity:1;" d="M 21.914062 18.652344 C 20.164062 18.652344 19.488281 17.636719 19.488281 11.242188 C 19.488281 6.234375 17.21875 3.105469 13.304688 2.636719 L 13.304688 1.015625 C 13.304688 0.445312 12.835938 -0.0273438 12.261719 -0.0273438 C 11.6875 -0.0273438 11.21875 0.445312 11.21875 1.015625 L 11.21875 2.582031 C 7.042969 2.921875 4.617188 6.105469 4.617188 11.21875 C 4.617188 17.609375 3.859375 18.625 2.085938 18.625 C 1.539062 18.652344 1.042969 19.042969 1.042969 19.617188 C 1.042969 20.21875 1.511719 20.609375 2.085938 20.609375 L 8.871094 20.609375 C 8.949219 21.390625 9.183594 22.355469 9.808594 23.035156 C 10.355469 23.636719 11.085938 23.972656 11.949219 23.972656 C 12.808594 23.972656 13.539062 23.609375 14.085938 23.035156 C 14.738281 22.332031 15 21.390625 15.105469 20.609375 L 21.914062 20.609375 C 22.488281 20.609375 22.957031 20.21875 22.957031 19.617188 C 22.957031 19.042969 22.488281 18.652344 21.914062 18.652344 Z M 12.574219 21.625 C 12.46875 21.730469 12.3125 21.886719 11.949219 21.886719 C 11.609375 21.886719 11.453125 21.730469 11.347656 21.625 C 11.164062 21.390625 11.035156 21.128906 10.984375 20.609375 L 11.871094 20.609375 C 11.921875 20.609375 11.972656 20.609375 12.027344 20.609375 C 12.078125 20.609375 12.128906 20.609375 12.183594 20.609375 L 13.042969 20.609375 C 12.9375 21.128906 12.808594 21.390625 12.574219 21.625 Z M 12.15625 18.523438 C 12.105469 18.523438 12.050781 18.523438 12 18.523438 C 11.949219 18.523438 11.894531 18.523438 11.84375 18.523438 L 5.6875 18.523438 C 6.652344 16.695312 6.652344 13.851562 6.652344 11.191406 C 6.652344 6.9375 8.503906 4.695312 11.84375 4.695312 L 12.128906 4.695312 C 15.46875 4.695312 17.320312 6.9375 17.320312 11.191406 C 17.320312 13.851562 17.320312 16.695312 18.285156 18.523438 Z M 15.859375 9.261719 C 15.886719 9.757812 15.496094 10.199219 15 10.226562 C 14.972656 10.226562 14.972656 10.226562 14.949219 10.226562 C 14.476562 10.226562 14.0625 9.859375 14.035156 9.363281 C 13.957031 8.191406 13.042969 7.773438 12.9375 7.722656 C 12.46875 7.511719 12.261719 6.992188 12.445312 6.523438 C 12.625 6.050781 13.148438 5.84375 13.617188 6.027344 C 13.722656 6.078125 15.730469 6.914062 15.859375 9.261719 Z M 15.859375 9.261719 "/>
</g>
</svg>
