<?xml version="1.0" encoding="UTF-8"?>
<svg xmlns="http://www.w3.org/2000/svg" xmlns:xlink="http://www.w3.org/1999/xlink" width="24px" height="24px" viewBox="0 0 24 24" version="1.1">
<g id="surface1">
<path style=" stroke:none;fill-rule:nonzero;fill:rgb(0%,0%,0%);fill-opacity:1;" d="M 5.738281 5.6875 L 5.738281 2.347656 C 5.738281 1.617188 6.3125 1.042969 7.042969 1.042969 C 7.773438 1.042969 8.347656 1.617188 8.347656 2.347656 L 8.347656 5.6875 C 8.347656 6.417969 7.773438 6.992188 7.042969 6.992188 C 6.3125 6.992188 5.738281 6.417969 5.738281 5.6875 Z M 16.957031 6.992188 C 17.6875 6.992188 18.261719 6.417969 18.261719 5.6875 L 18.261719 2.347656 C 18.261719 1.617188 17.6875 1.042969 16.957031 1.042969 C 16.226562 1.042969 15.652344 1.617188 15.652344 2.347656 L 15.652344 5.6875 C 15.652344 6.417969 16.226562 6.992188 16.957031 6.992188 Z M 24 4.015625 L 24 21.652344 C 24 22.226562 23.53125 22.695312 22.957031 22.695312 L 1.042969 22.695312 C 0.46875 22.695312 0 22.226562 0 21.652344 L 0 4.015625 C 0 3.445312 0.46875 2.871094 1.042969 2.871094 L 3.46875 2.871094 C 4.042969 2.871094 4.511719 3.339844 4.511719 3.914062 C 4.511719 4.488281 4.042969 4.957031 3.46875 4.957031 L 2.085938 4.957031 L 2.085938 9.390625 L 21.914062 9.390625 L 21.914062 4.957031 L 20.53125 4.957031 C 19.957031 4.957031 19.488281 4.488281 19.488281 3.914062 C 19.488281 3.339844 19.957031 2.871094 20.53125 2.871094 L 22.957031 2.871094 C 23.53125 2.871094 24 3.445312 24 4.015625 Z M 21.914062 20.609375 L 21.914062 11.21875 L 2.085938 11.21875 L 2.085938 20.609375 Z M 10.355469 4.957031 L 13.644531 4.957031 C 14.21875 4.957031 14.6875 4.488281 14.6875 3.914062 C 14.6875 3.339844 14.21875 2.871094 13.644531 2.871094 L 10.355469 2.871094 C 9.78125 2.871094 9.3125 3.339844 9.3125 3.914062 C 9.3125 4.488281 9.78125 4.957031 10.355469 4.957031 Z M 10.355469 4.957031 "/>
</g>
</svg>
