<?xml version="1.0" encoding="UTF-8"?>
<svg xmlns="http://www.w3.org/2000/svg" xmlns:xlink="http://www.w3.org/1999/xlink" width="24px" height="24px" viewBox="0 0 24 24" version="1.1">
<g id="surface1">
<path style=" stroke:none;fill-rule:nonzero;fill:rgb(0%,0%,0%);fill-opacity:1;" d="M 22.957031 2.871094 L 1.042969 2.871094 C 0.46875 2.871094 0 3.339844 0 3.914062 L 0 20.085938 C 0 20.660156 0.46875 21.128906 1.042969 21.128906 L 22.957031 21.128906 C 23.53125 21.128906 24 20.660156 24 20.085938 L 24 3.914062 C 24 3.339844 23.53125 2.871094 22.957031 2.871094 Z M 21.914062 4.957031 L 21.914062 13.695312 L 20.164062 12.234375 C 19.773438 11.921875 19.226562 11.921875 18.835938 12.234375 L 16.015625 14.582031 L 9.46875 8.894531 C 9.078125 8.554688 8.53125 8.554688 8.140625 8.871094 L 2.085938 13.746094 L 2.085938 4.957031 Z M 2.085938 19.042969 L 2.085938 16.433594 L 8.765625 11.035156 L 15.3125 16.722656 C 15.703125 17.0625 16.277344 17.0625 16.667969 16.746094 L 19.488281 14.398438 L 21.914062 16.433594 L 21.914062 19.042969 Z M 13.589844 8.503906 C 13.589844 7.460938 14.453125 6.601562 15.523438 6.601562 C 16.589844 6.601562 17.453125 7.460938 17.453125 8.503906 C 17.453125 9.546875 16.589844 10.410156 15.523438 10.410156 C 14.453125 10.410156 13.589844 9.546875 13.589844 8.503906 Z M 13.589844 8.503906 "/>
</g>
</svg>
