<?xml version="1.0" encoding="UTF-8"?>
<svg xmlns="http://www.w3.org/2000/svg" xmlns:xlink="http://www.w3.org/1999/xlink" width="24px" height="24px" viewBox="0 0 24 24" version="1.1">
<g id="surface1">
<path style=" stroke:none;fill-rule:nonzero;fill:rgb(0%,0%,0%);fill-opacity:1;" d="M 18.914062 12.128906 C 18.914062 12.78125 18.390625 13.304688 17.738281 13.304688 L 13.042969 13.304688 L 13.042969 17.738281 C 13.042969 18.390625 12.523438 18.914062 11.871094 18.914062 C 11.21875 18.914062 10.695312 18.390625 10.695312 17.738281 L 10.695312 13.304688 L 6.261719 13.304688 C 5.609375 13.304688 5.085938 12.78125 5.085938 12.128906 C 5.085938 11.476562 5.609375 10.957031 6.261719 10.957031 L 10.695312 10.957031 L 10.695312 6.261719 C 10.695312 5.609375 11.21875 5.085938 11.871094 5.085938 C 12.523438 5.085938 13.042969 5.609375 13.042969 6.261719 L 13.042969 10.957031 L 17.738281 10.957031 C 18.390625 10.957031 18.914062 11.476562 18.914062 12.128906 Z M 18.914062 12.128906 "/>
</g>
</svg>
