<?xml version="1.0" encoding="UTF-8"?>
<svg xmlns="http://www.w3.org/2000/svg" xmlns:xlink="http://www.w3.org/1999/xlink" width="24px" height="24px" viewBox="0 0 24 24" version="1.1">
<g id="surface1">
<path style=" stroke:none;fill-rule:nonzero;fill:rgb(0%,0%,0%);fill-opacity:1;" d="M 15.078125 0.574219 C 10.617188 0.574219 6.992188 4.253906 6.992188 8.738281 C 6.992188 10.644531 7.644531 12.363281 8.714844 13.773438 L 1.042969 21.546875 C 0.601562 22.015625 0.601562 22.746094 1.042969 23.191406 C 1.277344 23.425781 1.566406 23.53125 1.851562 23.53125 C 2.164062 23.53125 2.453125 23.425781 2.6875 23.191406 L 10.355469 15.417969 C 11.6875 16.382812 13.304688 16.929688 15.050781 16.929688 C 19.511719 16.929688 23.140625 13.253906 23.140625 8.765625 C 23.140625 4.277344 19.539062 0.574219 15.078125 0.574219 Z M 15.078125 14.871094 C 11.765625 14.871094 9.078125 12.128906 9.078125 8.765625 C 9.078125 5.398438 11.765625 2.660156 15.078125 2.660156 C 18.390625 2.660156 21.078125 5.398438 21.078125 8.765625 C 21.078125 12.128906 18.390625 14.871094 15.078125 14.871094 Z M 19.121094 8.871094 C 19.070312 9.3125 18.679688 9.652344 18.234375 9.652344 C 18.183594 9.652344 18.15625 9.652344 18.105469 9.652344 C 17.609375 9.574219 17.269531 9.128906 17.320312 8.636719 C 17.503906 7.277344 15.992188 6.574219 15.914062 6.546875 C 15.46875 6.339844 15.261719 5.792969 15.46875 5.347656 C 15.679688 4.90625 16.199219 4.695312 16.667969 4.878906 C 16.773438 4.90625 19.488281 6.15625 19.121094 8.871094 Z M 17.21875 10.851562 C 17.398438 11.035156 17.53125 11.320312 17.53125 11.582031 C 17.53125 11.871094 17.425781 12.128906 17.21875 12.3125 C 17.035156 12.496094 16.746094 12.625 16.488281 12.625 C 16.226562 12.625 15.9375 12.523438 15.757812 12.3125 C 15.574219 12.128906 15.445312 11.84375 15.445312 11.582031 C 15.445312 11.320312 15.546875 11.035156 15.757812 10.851562 C 15.9375 10.667969 16.226562 10.539062 16.488281 10.539062 C 16.746094 10.539062 17.007812 10.644531 17.21875 10.851562 Z M 17.21875 10.851562 "/>
</g>
</svg>
