<?xml version="1.0" encoding="UTF-8"?>
<svg xmlns="http://www.w3.org/2000/svg" xmlns:xlink="http://www.w3.org/1999/xlink" width="24px" height="24px" viewBox="0 0 24 24" version="1.1">
<g id="surface1">
<path style=" stroke:none;fill-rule:nonzero;fill:rgb(0%,0%,0%);fill-opacity:1;" d="M 6.523438 4.644531 L 6.523438 1.304688 C 6.523438 0.574219 7.09375 0 7.824219 0 C 8.554688 0 9.128906 0.574219 9.128906 1.304688 L 9.128906 4.644531 C 9.128906 5.375 8.554688 5.949219 7.824219 5.949219 C 7.09375 5.949219 6.523438 5.375 6.523438 4.644531 Z M 16.175781 5.949219 C 16.90625 5.949219 17.476562 5.375 17.476562 4.644531 L 17.476562 1.304688 C 17.476562 0.574219 16.90625 0 16.175781 0 C 15.445312 0 14.871094 0.574219 14.871094 1.304688 L 14.871094 4.644531 C 14.871094 5.375 15.445312 5.949219 16.175781 5.949219 Z M 7.355469 10.433594 L 16.617188 10.433594 C 17.191406 10.433594 17.660156 9.964844 17.660156 9.390625 C 17.660156 8.816406 17.191406 8.347656 16.617188 8.347656 L 7.355469 8.347656 C 6.78125 8.347656 6.3125 8.816406 6.3125 9.390625 C 6.3125 9.964844 6.78125 10.433594 7.355469 10.433594 Z M 21.914062 1.824219 L 19.746094 1.824219 C 19.175781 1.824219 18.703125 2.296875 18.703125 2.871094 C 18.703125 3.445312 19.175781 3.914062 19.746094 3.914062 L 20.871094 3.914062 L 20.871094 21.652344 L 3.128906 21.652344 L 3.128906 3.914062 L 4.253906 3.914062 C 4.824219 3.914062 5.296875 3.445312 5.296875 2.871094 C 5.296875 2.296875 4.824219 1.824219 4.253906 1.824219 L 2.085938 1.824219 C 1.511719 1.824219 1.042969 2.398438 1.042969 2.972656 L 1.042969 22.695312 C 1.042969 23.269531 1.511719 23.738281 2.085938 23.738281 L 21.914062 23.738281 C 22.488281 23.738281 22.957031 23.269531 22.957031 22.695312 L 22.957031 2.972656 C 22.957031 2.398438 22.488281 1.824219 21.914062 1.824219 Z M 11.140625 3.914062 L 12.859375 3.914062 C 13.433594 3.914062 13.90625 3.445312 13.90625 2.871094 C 13.90625 2.296875 13.433594 1.824219 12.859375 1.824219 L 11.140625 1.824219 C 10.566406 1.824219 10.09375 2.296875 10.09375 2.871094 C 10.09375 3.445312 10.566406 3.914062 11.140625 3.914062 Z M 7.355469 15.128906 L 16.617188 15.128906 C 17.191406 15.128906 17.660156 14.660156 17.660156 14.085938 C 17.660156 13.511719 17.191406 13.042969 16.617188 13.042969 L 7.355469 13.042969 C 6.78125 13.042969 6.3125 13.511719 6.3125 14.085938 C 6.3125 14.660156 6.78125 15.128906 7.355469 15.128906 Z M 7.355469 15.128906 "/>
</g>
</svg>
