<?xml version="1.0" encoding="UTF-8"?>
<svg xmlns="http://www.w3.org/2000/svg" xmlns:xlink="http://www.w3.org/1999/xlink" width="24px" height="24px" viewBox="0 0 24 24" version="1.1">
<g id="surface1">
<path style=" stroke:none;fill-rule:nonzero;fill:rgb(0%,0%,0%);fill-opacity:1;" d="M 12 14.894531 C 15.859375 14.894531 19.015625 11.738281 19.015625 7.851562 C 19.015625 3.9375 15.859375 0.78125 12 0.78125 C 8.140625 0.78125 4.984375 3.9375 4.984375 7.824219 C 4.984375 11.738281 8.140625 14.894531 12 14.894531 Z M 12 2.871094 C 14.714844 2.871094 16.929688 5.085938 16.929688 7.824219 C 16.929688 10.566406 14.714844 12.78125 12 12.78125 C 9.285156 12.78125 7.070312 10.566406 7.070312 7.824219 C 7.070312 5.085938 9.285156 2.871094 12 2.871094 Z M 15.261719 15.574219 C 14.921875 15.46875 14.53125 15.546875 14.269531 15.78125 L 12 17.714844 L 9.730469 15.78125 C 9.445312 15.546875 9.078125 15.46875 8.738281 15.574219 C 7.277344 16.042969 0 18.546875 0 22.175781 C 0 22.746094 0.46875 23.21875 1.042969 23.21875 L 22.957031 23.21875 C 23.53125 23.21875 24 22.746094 24 22.175781 C 24 18.546875 16.722656 16.042969 15.261719 15.574219 Z M 2.636719 21.128906 C 3.78125 19.90625 6.546875 18.546875 8.84375 17.765625 L 11.320312 19.878906 C 11.714844 20.21875 12.285156 20.21875 12.679688 19.878906 L 15.15625 17.765625 C 17.453125 18.574219 20.21875 19.929688 21.363281 21.128906 Z M 2.636719 21.128906 "/>
</g>
</svg>
